<?xml version="1.0" encoding="UTF-8"?>
<svg version="1.1" xmlns="http://www.w3.org/2000/svg" width="2400" height="2400">
<path d="M0 0 C0.33 0 0.66 0 1 0 C1.10489746 1.31097656 1.10489746 1.31097656 1.21191406 2.6484375 C4.77201413 46.3312087 12.70132281 88.23890629 32 128 C32.49234131 129.03592285 32.49234131 129.03592285 32.99462891 130.09277344 C44.93639344 155.21228422 60.72427281 177.39331843 77.25878906 199.64990234 C78.98994601 201.98643022 80.71144757 204.32974174 82.4296875 206.67578125 C90.47687107 217.65804868 98.68009198 228.51339638 106.95458984 239.32519531 C109.69386014 242.90736831 112.42565376 246.49520774 115.15722656 250.08325195 C117.81455441 253.57363099 120.47379541 257.06254951 123.13330078 260.55126953 C124.3349798 262.12762849 125.53649063 263.70411568 126.73779297 265.28076172 C133.43937231 274.07400443 140.18529358 282.83075144 146.98095703 291.55151367 C150.33533994 295.85660154 153.67689656 300.17071958 157 304.5 C166.47406316 316.83650589 176.05112069 329.09327223 185.67333984 341.31445312 C187.95086206 344.20808827 190.22524007 347.10419323 192.5 350 C193.4166523 351.16667796 194.33331895 352.33334464 195.25 353.5 C211.75 374.5 211.75 374.5 213.12451172 376.24951172 C214.04263354 377.41794152 214.96092826 378.58623548 215.87939453 379.75439453 C218.15022369 382.64300506 220.41814946 385.53379548 222.6796875 388.4296875 C227.51350702 394.61209171 232.40485299 400.7390293 237.375 406.8125 C241.84159669 412.2729954 246.18067817 417.81213709 250.4375 423.4375 C255.43652432 430.039785 260.61633797 436.46384358 265.90771484 442.83349609 C269.98517772 447.74712856 273.96268672 452.72624865 277.88720703 457.76245117 C281.36898282 462.22128835 284.92266549 466.61756866 288.5 471 C293.00767214 476.52333657 297.44842767 482.09184597 301.8359375 487.7109375 C305.33776601 492.1843716 308.90830958 496.59850641 312.5 501 C317.92211172 507.64953482 323.26230837 514.35666632 328.53710938 521.12353516 C330.10092158 523.12945315 331.66768938 525.13304437 333.234375 527.13671875 C350.53136973 549.28727248 367.38807697 571.74266898 383.796875 594.55859375 C385.89750316 597.47790536 388.01219178 600.38606057 390.140625 603.28515625 C398.45780469 614.643827 406.28256559 626.29746539 414.03759766 638.04541016 C415.88589819 640.8282085 417.7556478 643.59474921 419.63671875 646.35546875 C481.55152931 737.42893627 506.64801505 848.36310315 486.5 963.30078125 C477.2492455 1011.81810653 460.82395388 1058.2068605 438 1102 C438.74548096 1101.98839844 439.49096191 1101.97679687 440.2590332 1101.96484375 C441.73376099 1101.95130859 441.73376099 1101.95130859 443.23828125 1101.9375 C444.21063721 1101.92589844 445.18299316 1101.91429687 446.18481445 1101.90234375 C449.78271545 1102.02715169 452.62232511 1102.79904893 456 1104 C454.9086205 1112.81900934 451.39512946 1120.31508622 447.5 1128.1875 C447.18664703 1128.82862732 446.87329407 1129.46975464 446.55044556 1130.13031006 C441.74093327 1139.95169195 436.61527572 1149.26917925 430 1158 C429.60441895 1158.54333984 429.20883789 1159.08667969 428.80126953 1159.64648438 C422.27210825 1168.59924914 422.27210825 1168.59924914 418.296875 1169.8515625 C414.87723871 1170.00552717 411.75467199 1169.71381275 408.36962891 1169.27539062 C362.8730032 1163.9879196 318.73281581 1186.75454094 282 1211 C280.9171875 1211.70769531 279.834375 1212.41539063 278.71875 1213.14453125 C268.57320182 1219.84004759 258.57733084 1226.7742857 248.63671875 1233.76953125 C236.48316269 1242.30778239 224.1736623 1250.49802585 211.58300781 1258.37695312 C209.12714004 1259.92011087 206.68273368 1261.47962656 204.2421875 1263.046875 C185.45911628 1275.08420658 166.11026602 1286.13462221 146.45458984 1296.67871094 C144.24044853 1297.87056819 142.03501573 1299.07675346 139.83203125 1300.2890625 C97.65613695 1323.32055135 51.52281677 1340.21293014 5 1352 C3.84387207 1352.29712891 2.68774414 1352.59425781 1.49658203 1352.90039062 C-27.54657499 1360.28895045 -57.12835511 1365.35703171 -86.9375 1368.375 C-87.72349579 1368.45462982 -88.50949158 1368.53425964 -89.31930542 1368.61630249 C-178.00986968 1377.43216679 -270.27902362 1367.17585565 -424 1293 C-425.08023438 1292.25621094 -426.16046875 1291.51242187 -427.2734375 1290.74609375 C-440.99629613 1281.19341181 -453.95834762 1270.60172795 -466 1259 C-466.68884277 1258.33838867 -467.37768555 1257.67677734 -468.08740234 1256.99511719 C-477.33001632 1248.06888117 -486.13567329 1239.09164245 -493.73779297 1228.71533203 C-495.04542687 1226.93826515 -496.38138094 1225.18537627 -497.72265625 1223.43359375 C-540.02115219 1167.67580871 -567.98938293 1092.06012224 -558.39794922 1021.61083984 C-553.50343782 989.49924174 -539.96586869 958.07022898 -513.32421875 938.16796875 C-496.03951288 925.90220262 -475.11126334 918.58287497 -453.78662109 921.70336914 C-441.21158933 923.92080761 -431.46035088 929.57462768 -422 938 C-421.35933594 938.55816406 -420.71867188 939.11632813 -420.05859375 939.69140625 C-407.50645408 951.40498961 -398.46177004 966.55550967 -390.00878906 981.3203125 C-389.10955602 982.97115097 -389.10955602 982.97115097 -388 984 C-388.17390259 982.64189209 -388.17390259 982.64189209 -388.35131836 981.25634766 C-392.77359805 946.47481954 -392.77359805 946.47481954 -393 933 C-393.02046387 931.9490918 -393.04092773 930.89818359 -393.06201172 929.81542969 C-394.58396923 838.57344772 -367.78744395 750.48808989 -324 671 C-323.49710449 670.07799805 -322.99420898 669.15599609 -322.47607422 668.20605469 C-309.65048321 644.7288314 -295.57400981 622.18938284 -280.75 599.9375 C-280.20645874 599.12110046 -279.66291748 598.30470093 -279.10290527 597.46356201 C-271.57968301 586.18043391 -263.87521611 575.04004958 -256 564 C-255.35659668 563.09499756 -254.71319336 562.18999512 -254.05029297 561.25756836 C-246.73385322 550.99123781 -239.19834434 540.90874802 -231.49169922 530.93261719 C-230.10635272 529.13778856 -228.72582933 527.33940219 -227.34765625 525.5390625 C-218.67537554 514.21531917 -209.86198139 503.01639575 -200.84106445 491.96826172 C-197.29921986 487.62305258 -193.81876561 483.23569087 -190.375 478.8125 C-185.92964235 473.11119589 -181.31079415 467.5797052 -176.6171875 462.08203125 C-174.20503476 459.25316987 -171.84580002 456.38424878 -169.5 453.5 C-165.75082511 448.89387085 -161.92814812 444.356104 -158.08154297 439.83154297 C-155.22153062 436.4614901 -152.40744267 433.05973692 -149.625 429.625 C-145.45778876 424.50186933 -141.13687543 419.52405072 -136.79736328 414.54736328 C-133.63547557 410.91280797 -130.53157059 407.24488132 -127.5 403.5 C-122.80898741 397.70980181 -117.93089156 392.09053988 -113.02734375 386.48046875 C-111.24340775 384.43893261 -109.48841897 382.38521306 -107.75390625 380.30078125 C-107.15449219 379.58277344 -106.55507812 378.86476563 -105.9375 378.125 C-105.45152344 377.52945312 -104.96554687 376.93390625 -104.46484375 376.3203125 C-102.68934122 374.71999289 -101.35432966 374.30346869 -99 374 C-97.20477158 375.79522842 -97.78453445 378.3864547 -97.75 380.8125 C-98.10365671 407.98512425 -116.26395409 432.55092441 -133.39257812 452.15869141 C-135.00109641 454.00125595 -136.60311264 455.84926537 -138.203125 457.69921875 C-142.01199913 462.10254478 -145.82881979 466.49895502 -149.64550781 470.89550781 C-166.03442942 489.76894573 -166.03442942 489.76894573 -182 509 C-183.43710706 510.7503227 -184.87461537 512.50031602 -186.3125 514.25 C-194.87653121 524.72378033 -203.31060811 535.29344419 -211.51123047 546.0546875 C-213.24010584 548.31373619 -214.98155293 550.5628631 -216.72265625 552.8125 C-224.4560238 562.83931423 -231.88784474 572.98852559 -238.9375 583.5078125 C-241.16965648 586.82553307 -243.4939152 590.06016241 -245.86328125 593.28125 C-250.17808117 599.18145468 -254.20454488 605.24734113 -258.1875 611.375 C-258.55339233 611.93692047 -258.91928467 612.49884094 -259.29626465 613.07778931 C-275.92687019 638.63036844 -291.26086719 664.772464 -305 692 C-305.5583252 693.10585449 -306.11665039 694.21170898 -306.69189453 695.35107422 C-347.03134926 775.79355371 -367.77505424 862.49824698 -336.25 977.1875 C-319.71991196 1026.58581683 -293.31858712 1071.70198901 -258 1110 C-257.17371094 1110.92941406 -256.34742188 1111.85882812 -255.49609375 1112.81640625 C-244.44703425 1125.20709357 -232.2440981 1136.0164315 -219 1146 C-218.09314453 1146.69222656 -218.09314453 1146.69222656 -217.16796875 1147.3984375 C-208.14294053 1154.276459 -198.89949894 1160.45390891 -189 1166 C-187.85217041 1166.6496875 -187.85217041 1166.6496875 -186.68115234 1167.3125 C-141.10644483 1192.88300734 -87.42323469 1202.43681381 -36.57519531 1188.32714844 C-21.27267391 1183.87895449 -9.91980254 1177.72277313 -1 1164 C4.42153881 1153.56868483 5.71157369 1142.3825868 3.3515625 1130.82421875 C-4.93585579 1106.35154338 -28.58815579 1084.18154678 -45.7734375 1065.44140625 C-47.69133207 1063.33845167 -49.57376045 1061.21330844 -51.4375 1059.0625 C-54.86971551 1055.11098947 -58.41383951 1051.26483465 -61.95947266 1047.41552734 C-64.45097058 1044.70582091 -66.91145824 1041.97757131 -69.3125 1039.1875 C-73.32892336 1034.55167642 -77.54929167 1030.1063229 -81.74316406 1025.63183594 C-85.76733993 1021.33411014 -89.73025501 1016.98892943 -93.65234375 1012.59765625 C-96.6098077 1009.32525438 -99.61702931 1006.10092111 -102.625 1002.875 C-107.17310938 997.98992177 -111.66025276 993.07219404 -116 988 C-116.88791299 986.96605322 -117.77594505 985.93220867 -118.6640625 984.8984375 C-120.72217135 982.5016053 -122.77600656 980.10118057 -124.828125 977.69921875 C-126.86716499 975.31513925 -128.91871722 972.94307537 -130.984375 970.58203125 C-138.15340144 962.36107322 -144.84914476 953.84787694 -151.39746094 945.12597656 C-152.9535982 943.06155802 -154.52508951 941.00985192 -156.1015625 938.9609375 C-186.29375506 899.54187126 -211.74069366 850.62024901 -205.375 799.4375 C-201.701947 779.24837419 -191.26672902 756.9196647 -176 743 C-175.34 742.34 -174.68 741.68 -174 741 C-171.375 740.875 -171.375 740.875 -169 741 C-168.98541748 741.65782471 -168.97083496 742.31564941 -168.95581055 742.9934082 C-167.64334031 796.32236689 -146.05714789 838.07576343 -113 879 C-112.25234375 879.93070313 -111.5046875 880.86140625 -110.734375 881.8203125 C-105.63691314 888.10962695 -100.38662795 894.26305557 -95.1015625 900.39453125 C-93.06456481 902.75783171 -91.03876128 905.129912 -89.0234375 907.51171875 C-83.33895732 914.21704307 -77.51625708 920.75392923 -71.50634766 927.16967773 C-68.2141175 930.68427521 -65.00314724 934.24944184 -61.85546875 937.89453125 C-57.84008716 942.45093268 -53.67368892 946.87368647 -49.54638672 951.32861328 C-43.083751 958.31364709 -36.6749375 965.34621662 -30.3203125 972.4296875 C-27.68920193 975.34428474 -25.03345583 978.23537409 -22.375 981.125 C-18.8142498 984.99707262 -15.30955572 988.90905403 -11.8671875 992.88671875 C-9.9612365 995.0438725 -8.01243962 997.15798216 -6.05517578 999.26855469 C-1.32775877 1004.37203457 3.21952388 1009.56235482 7.57421875 1014.9921875 C9.34548022 1017.18843764 11.13556033 1019.3541602 12.95703125 1021.5078125 C25.42312394 1036.35240508 37.83051131 1052.408225 44 1071 C44.21865723 1071.65371582 44.43731445 1072.30743164 44.66259766 1072.98095703 C51.11916776 1093.44734565 49.49615531 1116.52088425 44 1137 C43.79632812 1137.79744629 43.59265625 1138.59489258 43.3828125 1139.41650391 C36.60018339 1165.6416231 24.45684807 1190.50804543 8 1212 C7.27167969 1212.95261719 6.54335937 1213.90523437 5.79296875 1214.88671875 C-17.67271283 1244.5253544 -50.39915704 1259.5870456 -87.25 1265.25 C-149.54415319 1272.30728969 -206.39558783 1253.56292747 -255.12036133 1214.9934082 C-259.38756442 1211.56228386 -263.50047641 1207.98137815 -267.5234375 1204.265625 C-269.58278277 1202.38168137 -271.67218942 1200.55318297 -273.78515625 1198.73046875 C-278.05086541 1195.00743267 -282.07171695 1191.07650778 -286.0625 1187.0625 C-287.06506836 1186.06573242 -287.06506836 1186.06573242 -288.08789062 1185.04882812 C-292.59714353 1180.53081088 -296.84390118 1175.84294146 -301 1171 C-302.28583984 1169.53626953 -302.28583984 1169.53626953 -303.59765625 1168.04296875 C-330.33528502 1137.06799786 -353.06322772 1100.54175787 -367 1062 C-368.17254372 1065.46689608 -369.29567615 1068.94466237 -370.375 1072.44140625 C-375.78449559 1089.6688296 -383.35993475 1105.3388229 -392.0625 1121.125 C-410.46702489 1154.14078449 -410.46702489 1154.14078449 -411 1191.0625 C-409.22353785 1196.19257605 -406.37404243 1200.80142165 -403.7109375 1205.51025391 C-400.88498506 1210.707607 -400.18606604 1214.20072056 -401 1220 C-404.03293666 1220 -406.22141581 1219.64029552 -408.60546875 1217.6796875 C-434.78180117 1188.95411606 -453.37808877 1147.77514312 -452.17041016 1108.93310547 C-450.8590262 1086.36151973 -436.93727906 1063.5164642 -426.35546875 1044.12109375 C-421.86642187 1035.87552229 -417.85606144 1027.65376243 -414.5 1018.875 C-414.17362549 1018.02220459 -413.84725098 1017.16940918 -413.51098633 1016.29077148 C-410.94475768 1009.33524677 -409.07951664 1002.33492475 -408.375 994.9375 C-408.25125 993.638125 -408.1275 992.33875 -408 991 C-426.49325405 986.00503749 -444.10145078 986.13243408 -461.1875 995.6875 C-485.17869007 1009.86923915 -500.5886527 1033.33928025 -509.375 1059.3125 C-509.73307739 1060.36872559 -509.73307739 1060.36872559 -510.09838867 1061.44628906 C-521.44193419 1096.81025376 -511.44660447 1137.74010185 -495.0234375 1169.91308594 C-488.1629824 1182.97165546 -479.6855489 1194.61431194 -469.54296875 1205.28125 C-467.74289649 1207.20575122 -466.05235855 1209.1159305 -464.38671875 1211.1484375 C-461.24203513 1214.90558814 -457.76625828 1217.88170013 -454 1221 C-453.47615723 1221.43618652 -452.95231445 1221.87237305 -452.41259766 1222.32177734 C-388.31649421 1275.46189797 -304.74240358 1292.38349704 -224 1301 C-222.83794037 1301.12695251 -222.83794037 1301.12695251 -221.65240479 1301.25646973 C-171.55479521 1306.68952872 -118.34924762 1306.95357325 -68.2623291 1301.25646973 C-65.86286731 1300.98445391 -63.46233603 1300.7236762 -61.06152344 1300.46386719 C-14.89019457 1295.4128473 30.81296353 1286.82248559 75.13496399 1272.77302551 C79.53270004 1271.39707209 83.94346453 1270.27777737 88.4375 1269.24609375 C97.76317317 1266.91937688 105.56473725 1264.85456824 111.20703125 1256.61328125 C114.82906903 1250.34429379 117.45245746 1243.76043252 120 1237 C120.79418828 1235.08449276 121.59462893 1233.17156162 122.40234375 1231.26171875 C136.58779882 1196.90146332 137.85350254 1159.82766055 123.80078125 1125.13671875 C117.20786922 1109.6420784 108.16359962 1095.66402786 98.81787109 1081.71582031 C97.15514082 1079.23177363 95.50609455 1076.73943281 93.86328125 1074.2421875 C89.18761841 1067.15185948 84.42035507 1060.13548089 79.53393555 1053.18847656 C77.73541584 1050.63064529 75.94728508 1048.06579738 74.16015625 1045.5 C72.33450274 1042.88187763 70.48460012 1040.29499177 68.55859375 1037.75 C63.64468338 1030.92016095 62.65156215 1025.32178787 64 1017 C66.70277776 1006.38545461 71.87136691 996.61760977 77 987 C77.37205566 986.29987793 77.74411133 985.59975586 78.12744141 984.87841797 C82.46989998 976.77088629 86.86105521 968.91824089 93 962 C93.71542969 961.14341797 93.71542969 961.14341797 94.4453125 960.26953125 C96 959 96 959 100 959 C101.97265625 961.203125 101.97265625 961.203125 104.0625 964.25 C134.5735107 1007.14229041 191.93846634 1028.20098605 239.625 1045.375 C240.71337158 1045.76768066 241.80174316 1046.16036133 242.9230957 1046.56494141 C251.85133426 1049.72193966 260.90005519 1052.3916136 270 1055 C270.54644715 1020.20392702 267.84970706 988.36087959 256.1015625 955.25390625 C255 952 255 952 255 950 C254.16529175 950.01571045 254.16529175 950.01571045 253.3137207 950.03173828 C207.44475609 950.77269487 153.16472359 942.07372147 118.45751953 909.44873047 C98.54534457 889.65662893 92.82085828 860.97005588 92.62884521 833.96908569 C92.55464754 792.35537951 104.98858094 755.31430487 120.15011597 717.08398438 C120.71386615 715.66016547 121.27310192 714.23455031 121.82766724 712.80712891 C122.59841116 710.83206664 123.38943309 708.86649639 124.1875 706.90234375 C124.63480469 705.78335693 125.08210938 704.66437012 125.54296875 703.51147461 C127 701 127 701 128.97216797 700.01538086 C132.62291045 699.98769042 135.28817541 702.54973906 138.125 704.625 C138.82584717 705.12281982 139.52669434 705.62063965 140.2487793 706.13354492 C142.50820706 707.74349649 144.7541542 709.37117129 147 711 C148.46158348 712.04648988 149.92381865 713.09207019 151.38671875 714.13671875 C155.9427941 717.39949239 160.47302971 720.69701609 165 724 C165.81500977 724.59280762 166.63001953 725.18561523 167.46972656 725.79638672 C185.98022183 739.27003705 202.83693159 753.77407234 219.07684326 769.90161133 C220.17595185 770.99266094 221.27653493 772.08222756 222.37872314 773.17016602 C229.39812762 780.10845071 235.89308491 787.22708869 242 795 C243.18483559 796.47140268 244.36972773 797.94275982 245.5546875 799.4140625 C260.29036704 818.00101404 272.22414967 837.8244988 282.5 859.1875 C282.921604 860.06051758 283.34320801 860.93353516 283.77758789 861.83300781 C285.98152748 866.50017401 287.75242957 870.98937748 289 876 C301.57169901 874.40836716 313.78572233 872.40341259 326 869 C315.32310204 829.0855207 294.94027244 795.21444118 270.6328125 762.21826172 C268.90465811 759.87047302 267.18630868 757.51570548 265.46875 755.16015625 C258.91747175 746.19609233 252.24335054 737.35437754 245.32666016 728.66943359 C243.03823661 725.78974272 240.77057886 722.89376493 238.5 720 C237.57945636 718.82940406 236.65888351 717.65883109 235.73828125 716.48828125 C233.93854228 714.19822673 232.14465891 711.90377268 230.35546875 709.60546875 C224.74786048 702.41453579 219.01363623 695.34230342 213.19433594 688.3215332 C209.53342966 683.89468198 205.954933 679.41635658 202.4375 674.875 C198.04402476 669.21451997 193.41846787 663.78922856 188.69946289 658.3984375 C184.78064594 653.91912159 180.98250968 649.3579864 177.234375 644.734375 C174.7301747 641.66979421 172.18452702 638.6433778 169.625 635.625 C169.16480469 635.08230469 168.70460938 634.53960938 168.23046875 633.98046875 C166.82099868 632.31972826 165.41066758 630.65972338 164 629 C158.80780978 622.89111965 153.61876419 616.78489359 148.5625 610.5625 C145.10725849 606.31607618 141.57302166 602.14703706 138 598 C133.68071044 592.98680512 129.44902881 587.9146268 125.27734375 582.77734375 C122.71795647 579.65603267 120.11392001 576.57562396 117.5 573.5 C112.59545912 567.723597 107.77681023 561.88269556 103 556 C102.00266277 554.77338985 101.00526302 553.54683053 100.0078125 552.3203125 C97.80040905 549.60552169 95.59509794 546.88904572 93.390625 544.171875 C91.17894255 541.44726505 88.96008052 538.72878949 86.734375 536.015625 C80.61317973 528.54165389 74.63924636 520.97938825 68.80249023 513.28100586 C65.29682274 508.6656762 61.71135205 504.12763256 58.0625 499.625 C51.07592956 490.97099584 44.53449304 481.99750834 38 473 C37.44135254 472.23220215 36.88270508 471.4644043 36.30712891 470.67333984 C33.04508462 466.18695118 29.79829093 461.68994112 26.56591797 457.18212891 C25.53308791 455.74286557 24.49829864 454.3050059 23.46142578 452.86865234 C-16.26811259 397.7986369 -39.68936494 336.23169406 -42 268 C-42.02336426 267.31067383 -42.04672852 266.62134766 -42.07080078 265.91113281 C-42.56833736 248.27576057 -41.07340294 230.50250948 -39 213 C-39.71542969 213.969375 -40.43085937 214.93875 -41.16796875 215.9375 C-47.03342221 223.84341427 -53.03782677 231.5966503 -59.28198242 239.20703125 C-62.59616214 243.25246229 -65.83022526 247.3403118 -69 251.5 C-73.28120256 257.11560336 -77.7134281 262.59275315 -82.18359375 268.05859375 C-85.52606496 272.15607022 -88.79405501 276.29479942 -92 280.5 C-96.26083847 286.08673958 -100.66458615 291.54244247 -105.10888672 296.98388672 C-110.49536289 303.58671505 -115.75696878 310.28308592 -121 317 C-127.30743245 325.08053205 -133.6824297 333.0964614 -140.16357422 341.03857422 C-143.65507316 345.3241126 -147.0980478 349.64311384 -150.5 354 C-154.44195165 359.0484644 -158.4503742 364.03751462 -162.5 369 C-168.42465971 376.26332952 -174.23269816 383.61143615 -180 391 C-185.78553839 398.41192692 -191.61468023 405.7798101 -197.5625 413.0625 C-202.32627179 418.89791114 -206.97275005 424.8051701 -211.54296875 430.79296875 C-214.14402636 434.19854197 -216.78696242 437.5703615 -219.4375 440.9375 C-219.89745361 441.52192871 -220.35740723 442.10635742 -220.83129883 442.70849609 C-222.2204271 444.47267685 -223.61017398 446.2363689 -225 448 C-232.15726212 457.08704483 -239.2791695 466.20083039 -246.375 475.3359375 C-248.80879371 478.4690518 -251.24651373 481.59904884 -253.6875 484.7265625 C-260.21100577 493.08821695 -266.69309396 501.47300455 -273 510 C-273.50466797 510.6811084 -274.00933594 511.3622168 -274.52929688 512.06396484 C-287.68057927 529.8227998 -300.65187189 547.67127305 -313 566 C-313.43111084 566.63883118 -313.86222168 567.27766235 -314.30639648 567.93585205 C-336.44202512 600.73903485 -356.07575586 633.47405937 -372.44921875 669.59228516 C-373.8962318 672.77197788 -375.36741731 675.93931407 -376.84375 679.10546875 C-400.9511843 731.48360662 -413.24806109 789.20021501 -413.1875 846.8125 C-413.18808914 848.01398682 -413.18808914 848.01398682 -413.18869019 849.23974609 C-413.18090169 862.59486863 -412.55588077 875.7868644 -411.27001953 889.0859375 C-410.7789939 894.38510744 -410.394632 899.69291663 -410 905 C-412 904 -412 904 -412.94213867 901.66870117 C-413.2641626 900.63720947 -413.58618652 899.60571777 -413.91796875 898.54296875 C-414.28180664 897.38200684 -414.64564453 896.22104492 -415.02050781 895.02490234 C-415.41048484 893.74606656 -415.79945543 892.46692349 -416.1875 891.1875 C-416.38597534 890.53952454 -416.58445068 889.89154907 -416.78894043 889.22393799 C-429.3011474 848.28505099 -437.20368173 805.88219669 -438 763 C-438.02046387 762.24638184 -438.04092773 761.49276367 -438.06201172 760.71630859 C-440.54467405 664.13869202 -405.32297065 576.27727175 -351 498 C-349.65215873 496.04830484 -348.30450545 494.09647985 -346.95703125 492.14453125 C-338.78132512 480.32431568 -330.48265458 468.60180267 -322 457 C-321.43571289 456.2270459 -320.87142578 455.4540918 -320.29003906 454.65771484 C-312.47897192 443.96923006 -304.54123103 433.38638098 -296.46240234 422.89892578 C-295.12495233 421.16225029 -293.79031767 419.42346652 -292.45703125 417.68359375 C-289.97714113 414.45124105 -287.49021577 411.22439704 -285 408 C-284.47825195 407.32356445 -283.95650391 406.64712891 -283.41894531 405.95019531 C-276.61481382 397.13584148 -269.7417569 388.38985105 -262.69311523 379.76953125 C-259.16204548 375.44687509 -255.68644881 371.08569564 -252.25 366.6875 C-248.35462652 361.70306006 -244.39005304 356.78423115 -240.37109375 351.8984375 C-233.66592309 343.70200153 -227.08705373 335.40312984 -220.5625 327.0625 C-216.59785287 321.99496535 -212.56735234 316.98542041 -208.5 312 C-203.03361212 305.29830658 -197.66156106 298.52915102 -192.33837891 291.71337891 C-185.76988535 283.30446104 -179.15775206 274.9326647 -172.48291016 266.60791016 C-167.73497767 260.6810536 -163.04193285 254.71206408 -158.35888672 248.73388672 C-156.07546692 245.82033167 -153.78745595 242.91038646 -151.5 240 C-150.57941982 238.82813071 -149.65884689 237.65625571 -148.73828125 236.484375 C-146.94521476 234.20217473 -145.150882 231.92097944 -143.35546875 229.640625 C-137.60820732 222.33822224 -131.89315274 215.01141552 -126.19213867 207.67285156 C-122.64161054 203.10448919 -119.07922779 198.54590478 -115.5 194 C-101.73286366 176.50911286 -88.17535816 158.85766126 -74.66015625 141.171875 C-73.05534906 139.0724096 -71.44972084 136.97357536 -69.84375 134.875 C-63.8689371 127.0671323 -57.89994439 119.25481717 -51.9375 111.4375 C-51.2667041 110.55843994 -50.5959082 109.67937988 -49.90478516 108.77368164 C-46.69966565 104.56740105 -43.50848694 100.35197766 -40.3515625 96.109375 C-39.793479 95.35986572 -39.23539551 94.61035645 -38.66040039 93.83813477 C-37.61756387 92.43456762 -36.57755251 91.02889572 -35.54077148 89.62084961 C-34.38385897 88.06295592 -33.19552841 86.52846038 -32 85 C-31.67 85 -31.34 85 -31 85 C-30.88616774 92.29791259 -30.99639241 99.5494752 -31.35864258 106.83740234 C-35.97618643 199.9379324 -9.75097811 293.34107708 47 368 C47.63583008 368.84014648 48.27166016 369.68029297 48.92675781 370.54589844 C52.32166753 375.02809903 55.73063617 379.49916592 59.15234375 383.9609375 C62.0280244 387.71527864 64.86403527 391.49597792 67.67773438 395.296875 C72.86936373 402.30312245 78.28407538 409.08185755 83.85986328 415.78613281 C87.47794805 420.13822043 91.02567019 424.53245315 94.5 429 C103.13048479 440.07576214 112.13858459 450.84748899 121.23828125 461.53930664 C124.54765158 465.43726861 127.74380837 469.41377025 130.91796875 473.421875 C133.33084092 476.40967168 135.81796079 479.33056197 138.3125 482.25 C142.11743964 486.70638944 145.78802479 491.24168804 149.375 495.875 C153.78007931 501.55846261 158.41914987 506.99233412 163.16357422 512.39404297 C166.74823075 516.49670732 170.17092654 520.68802825 173.5 525 C177.90958474 530.70885183 182.54926078 536.17429044 187.30029297 541.60107422 C191.21537092 546.07661665 195.01143746 550.63247231 198.75390625 555.25390625 C201.31890636 558.38989769 203.93667838 561.477462 206.5625 564.5625 C210.3646348 569.03567619 214.07883538 573.56345973 217.7265625 578.1640625 C220.67874023 581.84667596 223.68261933 585.48534846 226.6875 589.125 C232.41503249 596.06530456 238.10729301 603.03295236 243.7734375 610.0234375 C245.96008415 612.72114459 248.15326734 615.41333969 250.3515625 618.1015625 C256.19195834 625.25023427 261.93967187 632.45005536 267.5390625 639.7890625 C270.1588654 643.21950546 272.82744033 646.61059401 275.5 650 C302.86403162 684.75945861 329.88759508 719.90181575 349 760 C349.29616211 760.61746094 349.59232422 761.23492188 349.89746094 761.87109375 C366.27243639 796.41006093 380.2152212 841.49738085 367.30078125 879.03222656 C364.17110424 887.80442972 360.10997502 895.97824927 355.5 904.0625 C355.06163818 904.8356958 354.62327637 905.6088916 354.17163086 906.40551758 C343.83045918 923.96402474 326.09090395 934.05463242 307 940 C307.0721875 940.84175781 307.144375 941.68351562 307.21875 942.55078125 C311.39696394 998.43439268 299.06255703 1050.81162529 275 1101 C274.60796387 1101.82951172 274.21592773 1102.65902344 273.81201172 1103.51367188 C261.94247497 1128.55221402 261.94247497 1128.55221402 254 1133 C246.18150909 1132.70749832 239.10342042 1130.42662065 231.6875 1128.0625 C231.06316071 1127.86569641 230.43882141 1127.66889282 229.79556274 1127.46612549 C210.19248505 1121.28560347 190.62982989 1114.7363488 172 1106 C172.03480469 1107.2375 172.06960938 1108.475 172.10546875 1109.75 C173.03172559 1157.55514447 157.39144519 1206.6106258 134 1248 C133.32783609 1249.33057052 132.66008804 1250.66339759 132 1252 C157.17377158 1241.60034354 181.54801613 1229.86598546 205 1216 C205.886875 1215.48066895 206.77375 1214.96133789 207.6875 1214.42626953 C221.94687078 1206.05044363 235.70061002 1196.96555305 249.42459106 1187.7518158 C250.14170258 1187.27039627 250.85881409 1186.78897675 251.59765625 1186.29296875 C252.69713089 1185.55482689 252.69713089 1185.55482689 253.81881714 1184.80177307 C263.8801694 1178.05640843 274.00582414 1171.40814412 284.125 1164.75 C287.77363751 1162.34926205 291.42206229 1159.94820147 295.0703125 1157.546875 C295.9307164 1156.98095139 296.7911203 1156.41502777 297.67759705 1155.83195496 C302.20056528 1152.85439203 306.71032019 1149.85870048 311.20489502 1146.83847046 C344.44232098 1124.52320184 385.65289516 1100.87398359 427 1102 C427.17305664 1101.35530762 427.34611328 1100.71061523 427.52441406 1100.04638672 C428.90051529 1094.95626261 430.31479206 1089.88065779 431.796875 1084.8203125 C436.37706171 1069.15710372 440.49292709 1053.43569044 444.17529297 1037.53759766 C444.97490217 1034.10765765 445.80007967 1030.68469741 446.62890625 1027.26171875 C450.65933118 1010.29531172 453.16115578 993.32123249 455 976 C455.12930908 974.7939209 455.12930908 974.7939209 455.26123047 973.56347656 C455.7157268 969.04467134 455.91890974 964.53825808 456 960 C456.02046387 958.96149902 456.04092773 957.92299805 456.06201172 956.85302734 C457.6697955 859.9740888 424.54239825 776.60233073 370.59033203 697.78710938 C368.4147074 694.60878836 366.24947578 691.4235923 364.08984375 688.234375 C353.16658017 672.1249637 341.68408168 656.48419149 329.84765625 641.03515625 C326.490668 636.65161673 323.17481339 632.2391468 319.875 627.8125 C315.09161602 621.40626907 310.2052746 615.08485481 305.28295898 608.78491211 C301.84246159 604.37912593 298.43237216 599.95261824 295.05175781 595.50073242 C289.71496115 588.47298159 284.25787251 581.56646677 278.66601562 574.73999023 C275.35379564 570.68954667 272.10960971 566.5984938 268.9375 562.4375 C264.87595117 557.11411075 260.72280936 551.87327659 256.52880859 546.65380859 C253.17679282 542.47958007 249.85909742 538.28058489 246.5625 534.0625 C242.59810687 528.99477151 238.56734744 523.9854144 234.5 519 C228.11856278 511.17647251 221.87801098 503.249282 215.66601562 495.29101562 C209.80106395 487.78216508 203.86044974 480.34337472 197.83642578 472.96142578 C193.88769507 468.11467162 190.0114492 463.2164174 186.1640625 458.2890625 C182.66223545 453.81563025 179.09177321 449.40142446 175.5 445 C169.11846002 437.17655867 162.87800891 429.24927935 156.66601562 421.29101562 C151.32308457 414.45050389 145.92806651 407.66031522 140.4375 400.9375 C135.67372821 395.10208886 131.02724995 389.1948299 126.45703125 383.20703125 C123.85597364 379.80145803 121.21303758 376.4296385 118.5625 373.0625 C118.10254639 372.47807129 117.64259277 371.89364258 117.16870117 371.29150391 C115.7795729 369.52732315 114.38982602 367.7636311 113 366 C100.80391391 350.51553414 88.6934058 334.96734623 76.74658203 319.28955078 C74.87436155 316.8353037 72.99790818 314.38432924 71.12109375 311.93359375 C45.5518143 278.51683848 45.5518143 278.51683848 35.22753906 261.96728516 C34.44044694 260.70587141 33.6485461 259.44743803 32.85058594 258.19287109 C-6.69045736 195.98975849 -22.47784863 115.70171251 -10 43 C-9.81775879 41.90864746 -9.63551758 40.81729492 -9.44775391 39.69287109 C-7.14819802 26.19330617 -4.26114743 13.01916534 0 0 Z M124 790 C123.43493138 805.66495776 125.77371903 818.84740677 136 831.1875 C147.83054828 843.40785218 163.4738242 848.96126706 179 855 C180.12148437 855.44005371 181.24296875 855.88010742 182.3984375 856.33349609 C185.71902701 857.63143247 189.04508704 858.91369133 192.375 860.1875 C193.40931152 860.58646484 194.44362305 860.98542969 195.50927734 861.39648438 C196.4627002 861.75419922 197.41612305 862.11191406 198.3984375 862.48046875 C199.24067871 862.79910889 200.08291992 863.11774902 200.95068359 863.44604492 C203.04330759 864.25547824 203.04330759 864.25547824 205 863 C190.89620277 846.55315258 176.63084798 829.97366363 160 816 C159.19046875 815.28972656 158.3809375 814.57945312 157.546875 813.84765625 C151.13179951 808.31958142 144.43271433 803.356764 137.5 798.5 C136.62698242 797.88825928 135.75396484 797.27651855 134.85449219 796.64624023 C131.313096 794.19198794 127.90207684 791.84742395 124 790 Z " fill="#07574D" transform="translate(1144,358)"/>
<path d="M0 0 C0.33 0 0.66 0 1 0 C1.03963867 0.68175293 1.07927734 1.36350586 1.12011719 2.06591797 C5.29176978 71.12866374 27.33505925 132.1164921 68.34082031 187.74804688 C70.02255898 190.03061861 71.69553277 192.31941058 73.3671875 194.609375 C80.14716218 203.87640324 87.05402678 213.0395414 94.03393555 222.15673828 C98.46395269 227.95317246 102.8177689 233.79939442 107.125 239.6875 C112.79977171 247.43758466 118.64548915 255.03852252 124.56640625 262.6015625 C127.91117374 266.87569416 131.21064097 271.18315355 134.5 275.5 C139.62026785 282.21497723 144.78986015 288.89006564 149.98046875 295.55078125 C153.33493292 299.85617612 156.67671851 304.17048762 160 308.5 C169.47406316 320.83650589 179.05112069 333.09327223 188.67333984 345.31445312 C190.95086206 348.20808827 193.22524007 351.10419323 195.5 354 C196.4166523 355.16667796 197.33331895 356.33334464 198.25 357.5 C203.75 364.5 203.75 364.5 205.12451172 366.24951172 C206.04263354 367.41794152 206.96092826 368.58623548 207.87939453 369.75439453 C210.15022369 372.64300506 212.41814946 375.53379548 214.6796875 378.4296875 C219.57733265 384.69386906 224.53250012 390.90394625 229.5625 397.0625 C234.29248457 402.85372563 238.884667 408.72512052 243.41796875 414.671875 C246.30647402 418.42704455 249.30995713 422.08585728 252.3125 425.75 C256.80150902 431.23055985 261.16363014 436.78772857 265.4375 442.4375 C270.43356168 449.03611485 275.6099583 455.4569688 280.89892578 461.82250977 C284.6055267 466.28857506 288.24262114 470.79896101 291.8125 475.375 C296.45424902 481.3238029 301.20720354 487.1719595 306 493 C312.9777687 501.50936269 319.87883958 510.06005145 326.5546875 518.80859375 C329.08859079 522.12631507 331.66603761 525.40869842 334.25 528.6875 C336.16720974 531.12457313 338.08365511 533.56224678 340 536 C340.53641113 536.68191406 341.07282227 537.36382813 341.62548828 538.06640625 C350.0338382 548.76926691 358.21411843 559.61639577 366.24560547 570.60449219 C368.58771118 573.80248011 370.94425392 576.98969774 373.30053711 580.17724609 C376.20768319 584.11278956 379.10546417 588.05517543 382 592 C382.53979492 592.73541016 383.07958984 593.47082031 383.63574219 594.22851562 C392.71434498 606.62398181 401.41110562 619.26141508 410 632 C410.59989746 632.88623047 411.19979492 633.77246094 411.81787109 634.68554688 C471.91325122 723.52362315 504.61192353 826.15889039 484.88427734 969.57666016 C474.82297024 1020.76554464 474.82297024 1020.76554464 466 1034 C466.14386542 1031.41654437 466.29007414 1028.83325309 466.4375 1026.25 C466.49647461 1025.18458984 466.49647461 1025.18458984 466.55664062 1024.09765625 C466.80245172 1019.8243249 467.11906932 1015.56462993 467.49609375 1011.30078125 C473.5731174 939.5248219 459.97527817 868.38095252 430 803 C429.65759277 802.25282715 429.31518555 801.5056543 428.96240234 800.73583984 C427.04570173 796.57742872 425.0861305 792.44077584 423.10546875 788.3125 C421.85268551 785.69183682 420.61370734 783.06484467 419.375 780.4375 C403.14864596 746.10726849 382.57605914 715.19649672 361 684 C360.44103027 683.19111328 359.88206055 682.38222656 359.30615234 681.54882812 C348.05069738 665.28918583 336.43130297 649.32140491 324.31005859 633.69580078 C322.3251066 631.12638659 320.35801629 628.54342646 318.38916016 625.96166992 C311.5727432 617.02438686 304.68627606 608.1432625 297.77490234 599.27929688 C295.98871009 596.98550171 294.20663651 594.68856552 292.42578125 592.390625 C286.44952989 584.6826376 280.43710505 577.00848237 274.32983398 569.40380859 C271.00845061 565.26690946 267.71241203 561.111282 264.4375 556.9375 C263.98592529 556.36209473 263.53435059 555.78668945 263.0690918 555.19384766 C260.81772104 552.32303719 258.5698539 549.44951721 256.32421875 546.57421875 C251.42461365 540.30926651 246.46865083 534.09746294 241.4375 527.9375 C236.71049647 522.14992425 232.12160744 516.28181591 227.58984375 510.33984375 C224.11471951 505.82258932 220.49267037 501.42459661 216.88671875 497.01171875 C213.37663802 492.71063392 209.91582925 488.37623814 206.5 484 C202.55814849 478.95146161 198.54968884 473.96242869 194.5 469 C189.97245928 463.45081941 185.50484138 457.86084363 181.09375 452.21875 C177.75845272 447.95537 174.38742566 443.72205605 171 439.5 C167.15735732 434.71056567 163.34440828 429.90001634 159.5625 425.0625 C155.58070114 419.97091289 151.52672544 414.94313196 147.4375 409.9375 C142.6892667 404.12268489 138.06768546 398.23079157 133.515625 392.26171875 C130.79538852 388.7126939 127.99277684 385.23192653 125.1875 381.75 C120.31004964 375.6910896 115.56894748 369.5382333 110.86279297 363.34570312 C107.24297527 358.59435402 103.55764226 353.90309207 99.8125 349.25 C94.95394983 343.21053044 90.18365228 337.10965857 85.484375 330.9453125 C83.76363385 328.69023594 82.0379373 326.43898526 80.3125 324.1875 C72.58702315 314.09292718 64.94726752 303.94256604 57.44140625 293.68359375 C55.11903874 290.51130471 52.77116356 287.36039894 50.40234375 284.22265625 C42.59013133 273.83849154 35.51255319 263.24400111 29 252 C28.36650635 250.92032959 28.36650635 250.92032959 27.72021484 249.81884766 C-14.07994165 178.31055074 -24.61967243 90.59937297 -3.75 10.6875 C-1.2446179 1.2446179 -1.2446179 1.2446179 0 0 Z " fill="#07574D" transform="translate(1205,229)"/>
<path d="M0 0 C1.02867187 0.87398437 1.02867187 0.87398437 2.078125 1.765625 C18.94029068 17.36706801 29.04783684 41.58415645 32 64 C32.11085938 64.83144531 32.22171875 65.66289063 32.3359375 66.51953125 C35.13448895 91.74431257 31.25124108 117.56715467 25 142 C24.75797852 142.94875 24.51595703 143.8975 24.26660156 144.875 C11.52666873 193.67041842 -13.318018 239.46685577 -43 280 C-43.4935498 280.67901367 -43.98709961 281.35802734 -44.49560547 282.05761719 C-61.48883068 305.38251922 -81.17534076 328.21946435 -104 346 C-105.08986059 346.87857473 -106.17833692 347.75886862 -107.265625 348.640625 C-157.56966271 389.19620516 -220.1574572 405.33309288 -284 407 C-284.69158203 407.02191406 -285.38316406 407.04382812 -286.09570312 407.06640625 C-330.17150548 408.32932322 -374.91149671 400.88370234 -416 385 C-416.94053223 384.63696777 -417.88106445 384.27393555 -418.85009766 383.89990234 C-421.4355949 382.88187724 -424.00168028 381.8284173 -426.5625 380.75 C-427.31305664 380.44521729 -428.06361328 380.14043457 -428.83691406 379.82641602 C-433.68491997 377.67889547 -433.68491997 377.67889547 -435.0859375 374.66015625 C-434.7256661 363.50811867 -427.12043971 351.65423455 -422 342 C-421.64921387 341.32646484 -421.29842773 340.65292969 -420.93701172 339.95898438 C-408.615 316.41 -408.615 316.41 -399 310 C-393.81195339 310.29787827 -389.89945531 311.76826145 -385.25 314 C-356.11697208 327.28241838 -324.65493469 333.504654 -293 337 C-292.05535889 337.1045752 -291.11071777 337.20915039 -290.13745117 337.31689453 C-278.48711054 338.40204665 -266.75245692 338.24389326 -255.0625 338.25 C-253.90349182 338.25067474 -252.74448364 338.25134949 -251.550354 338.25204468 C-178.30937454 338.18437535 -108.77592503 317.98562233 -55.62890625 265.65625 C-51.73476311 261.69673755 -48.31544112 257.44724291 -45 253 C-44.60506348 252.48002441 -44.21012695 251.96004883 -43.80322266 251.42431641 C-24.59132753 226.04064679 -13.45038886 196.45162871 -9 165 C-8.86851562 164.07832031 -8.73703125 163.15664062 -8.6015625 162.20703125 C-5.21040543 132.64897303 -10.51803039 102.4224868 -28.94921875 78.515625 C-29.96435547 77.27039062 -29.96435547 77.27039062 -31 76 C-31.68707031 75.14921875 -32.37414063 74.2984375 -33.08203125 73.421875 C-46.62559712 57.51123545 -67.19006255 45.7903049 -88 43 C-97.24320619 42.58029792 -105.96565287 42.85625661 -115 45 C-110.73828145 68.06341802 -101.98277796 87.85646484 -91 108.5 C-74.51253253 139.51282708 -64.38399417 167.44822303 -74.79614258 202.40917969 C-82.39406739 226.32827978 -96.2030025 249.61735078 -112 269 C-112.45036621 269.55937256 -112.90073242 270.11874512 -113.36474609 270.69506836 C-114.625 272.125 -114.625 272.125 -117 274 C-119.8125 273.8125 -119.8125 273.8125 -122 273 C-122 266.58685835 -120.28187709 262.26466967 -117.125 256.75 C-108.93486751 242.31198718 -108.81969773 228.74007878 -113 213 C-117.95238315 196.28411547 -126.80061807 180.92307355 -135.1875 165.75 C-150.44895462 138.06917812 -160.20232308 110.3254057 -151.38037109 78.78466797 C-145.01539218 57.39925136 -134.771764 36.2938162 -122 18 C-121.6189209 17.45359863 -121.2378418 16.90719727 -120.84521484 16.34423828 C-115.72793964 9.10330476 -110.06973136 2.45241145 -104 -4 C-103.31550781 -4.77214844 -102.63101562 -5.54429688 -101.92578125 -6.33984375 C-91.99087982 -17.08275934 -78.45944609 -23.87965807 -63.8046875 -24.9296875 C-38.71497848 -25.55867742 -18.74260959 -16.02347452 0 0 Z " fill="#07574D" transform="translate(1783,1304)"/>
<path d="M0 0 C1.92944336 1.35180664 1.92944336 1.35180664 2.57958984 3.42041016 C2.68895874 4.68776001 2.68895874 4.68776001 2.80053711 5.98071289 C2.89681396 6.92454834 2.99309082 7.86838379 3.09228516 8.84082031 C3.18292236 9.8550708 3.27355957 10.86932129 3.36694336 11.91430664 C4.51160638 22.21627382 6.43377279 31.60413483 9.92944336 41.35180664 C10.19321777 42.09366211 10.45699219 42.83551758 10.72875977 43.59985352 C26.78880847 87.87400279 54.41356055 128.72459726 82.42114258 166.32250977 C84.11388222 168.59995423 85.78987928 170.88920666 87.46459961 173.17993164 C94.1650945 182.33375028 100.96106339 191.39990846 107.92944336 200.35180664 C109.04287008 201.7865896 110.15614105 203.22149343 111.26928711 204.65649414 C114.81645961 209.22645011 118.37166703 213.79010332 121.92944336 218.35180664 C122.66662598 219.29805908 122.66662598 219.29805908 123.41870117 220.26342773 C129.22516579 227.71173431 135.12416802 235.07711903 141.09594727 242.39355469 C144.56870928 246.65511364 147.98764303 250.95338905 151.36694336 255.28930664 C156.58729172 261.97877465 161.97942584 268.51997842 167.38647461 275.05883789 C172.40440449 281.12942282 177.36068832 287.24989445 182.32055664 293.36791992 C184.47958416 296.03017449 186.64114184 298.69036814 188.80297852 301.3503418 C189.88497813 302.68180875 190.96668517 304.01351353 192.0480957 305.34545898 C194.78849266 308.72035243 197.53294518 312.09180756 200.28491211 315.45727539 C222.12669601 342.19594903 222.12669601 342.19594903 220.92944336 355.35180664 C218.3297039 365.95728585 213.04258145 375.76581202 207.92944336 385.35180664 C207.56270508 386.04129395 207.1959668 386.73078125 206.81811523 387.44116211 C196.15185075 407.33142661 196.15185075 407.33142661 190.92944336 412.35180664 C187.69116211 413.13696289 187.69116211 413.13696289 184.92944336 413.35180664 C184.29780273 412.5384082 183.66616211 411.72500977 183.01538086 410.88696289 C177.16837851 403.38716049 171.19822746 396.00366757 165.13085938 388.68115234 C161.43183948 384.20637632 157.80555397 379.68497185 154.24194336 375.10180664 C150.22973788 369.94420136 146.08050383 364.92720319 141.83837891 359.95751953 C138.52474521 356.07177321 135.30976822 352.12188524 132.13647461 348.12133789 C129.36070809 344.63811937 126.55232669 341.18211466 123.74194336 337.72680664 C123.18651855 337.04312012 122.63109375 336.35943359 122.05883789 335.6550293 C119.26614036 332.21878668 116.46819502 328.78704453 113.65991211 325.36352539 C107.56504777 317.92007681 101.62281858 310.38680855 95.81323242 302.71850586 C92.03118577 297.74387056 88.14103157 292.87186592 84.17944336 288.03930664 C79.38294685 282.18083957 74.75260726 276.23382133 70.2565918 270.13989258 C68.6814378 268.01766522 67.09116513 265.90718434 65.49975586 263.79711914 C53.54199489 247.93573383 41.9200026 231.85170693 30.50805664 215.59399414 C28.84161713 213.22706243 27.16528257 210.86734136 25.48803711 208.50805664 C-5.09578465 165.36038911 -42.33067149 108.75620252 -33.7043457 52.98413086 C-32.68204079 48.53891107 -30.98637493 44.47639602 -29.07055664 40.35180664 C-28.78116211 39.7151709 -28.49176758 39.07853516 -28.19360352 38.42260742 C-9.23290244 -2.89038509 -9.23290244 -2.89038509 0 0 Z " fill="#07574D" transform="translate(992.070556640625,918.648193359375)"/>
<path d="M0 0 C0.6487207 0.20898926 1.29744141 0.41797852 1.96582031 0.63330078 C21.89162426 7.19495551 36.99618112 20.71733668 47 39 C57.25773259 59.56662593 58.51189324 82.80368987 51.875 104.6875 C47.79930568 116.03012144 41.36131142 125.39407575 33 134 C34.71034288 138.26011786 37.74528279 141.30187229 40.8125 144.625 C41.33392578 145.21023438 41.85535156 145.79546875 42.39257812 146.3984375 C45.32396938 149.58966493 47.6615227 151.91903259 52 153 C55.22828237 152.69912284 55.22828237 152.69912284 58 152 C58.66 153.32 59.32 154.64 60 156 C55.59956158 160.50576807 51.12527458 164.83425722 46.34765625 168.9375 C42.68368995 172.15642547 39.12762199 175.49199433 35.56762695 178.82519531 C27.86018975 186 27.86018975 186 24 186 C23.06380549 183.29543809 22.97456556 182.08819803 23.78515625 179.27734375 C24.08700208 174.67282283 21.86776285 172.48938423 19 169.1875 C17.98288269 167.95979299 16.96595584 166.73192817 15.94921875 165.50390625 C15.44696777 164.90980957 14.9447168 164.31571289 14.42724609 163.70361328 C12.49140574 161.39292324 10.64933121 159.01477421 8.8125 156.625 C8.26207031 155.91601562 7.71164062 155.20703125 7.14453125 154.4765625 C6.76683594 153.98929688 6.38914062 153.50203125 6 153 C5.04222656 153.26554687 4.08445312 153.53109375 3.09765625 153.8046875 C-25.23548491 161.42162648 -57.32540024 162.44362269 -84 148.625 C-102.69108079 137.82828874 -116.88189799 121.50510378 -123.00390625 100.56640625 C-123.76465916 97.38741463 -124.42366578 94.21714923 -125 91 C-125.13148437 90.28328125 -125.26296875 89.5665625 -125.3984375 88.828125 C-128.54854748 68.22470296 -123.08222711 46.77567766 -111.4140625 29.67578125 C-97.56567992 11.04873144 -78.60773952 0.18152636 -55.78759766 -3.52124023 C-37.85757628 -5.78763007 -17.22360404 -5.74716933 0 0 Z M-78.77734375 42.93359375 C-87.55131099 53.67221523 -91.1895112 68.32062125 -90 82 C-88.14621219 97.11679694 -82.64264724 109.89094059 -70.68066406 119.75976562 C-57.64446596 129.3797375 -42.94842779 132.40582438 -27 131 C-22.90695164 130.2514827 -18.96376061 129.26119656 -15 128 C-21.0251834 118.11869922 -29.44057855 111.00528484 -40.5625 107.4375 C-41.696875 106.963125 -42.83125 106.48875 -44 106 C-45 103.3125 -45 103.3125 -45 101 C-43.34015202 100.31653318 -41.67163195 99.65411685 -40 99 C-39.12214844 98.65453125 -38.24429687 98.3090625 -37.33984375 97.953125 C-28.95737652 95.56093552 -17.88337601 95.41952674 -10.12109375 99.65625 C-9.42113281 100.0996875 -8.72117187 100.543125 -8 101 C-6.59427734 101.85078125 -6.59427734 101.85078125 -5.16015625 102.71875 C-1.60322325 104.92488978 1.89676793 107.13975332 5.19921875 109.71484375 C6.90260099 111.1936347 6.90260099 111.1936347 9 111 C18.90383689 98.46457217 20.91545578 82.37515737 19.27734375 66.98193359 C17.43451329 53.81283353 10.13004915 42.36155665 0 34 C-25.49528579 16.28060434 -57.87914178 20.19818722 -78.77734375 42.93359375 Z " fill="#07574D" transform="translate(1314,1831)"/>
<path d="M0 0 C17.82 0 35.64 0 54 0 C54 5 54 5 52 7.3125 C51.34 7.869375 50.68 8.42625 50 9 C51.50563591 14.4886302 55.33990063 17.90117592 59.1875 21.875 C59.89640381 22.61806396 60.60530762 23.36112793 61.33569336 24.12670898 C66.75505588 29.78146099 72.26749697 35.3442105 77.86206055 40.82568359 C80.82666061 43.74566244 83.6577691 46.71503184 86.37109375 49.87109375 C90.35201877 54.48230878 94.65821481 58.73106355 99 63 C107.56536469 71.42165051 107.56536469 71.42165051 111.48828125 75.98828125 C115.47976703 80.63331673 119.82335739 84.89531357 124.1875 89.1875 C125.76671709 90.74105962 127.3436167 92.29697919 128.91796875 93.85546875 C129.60656982 94.53246826 130.2951709 95.20946777 131.00463867 95.90698242 C133.1572221 98.1649168 135.0647045 100.5550043 137 103 C137.06943244 90.92615506 137.12277691 78.85235742 137.15543652 66.77835369 C137.17110947 61.17223255 137.19237755 55.56624774 137.22631836 49.96020508 C137.25885356 44.55264249 137.27684073 39.14521125 137.28463173 33.73755836 C137.29018574 31.67182153 137.30103101 29.60609209 137.31719017 27.540411 C137.33888675 24.65267635 137.34197018 21.76548825 137.34057617 18.87768555 C137.351362 18.01885269 137.36214783 17.16001984 137.3732605 16.27516174 C137.50895136 12.02575995 137.50895136 12.02575995 135.66495228 8.3817873 C133.83762747 6.81625764 133.83762747 6.81625764 131 5 C131 3.35 131 1.7 131 0 C146.51 0 162.02 0 178 0 C178 1.65 178 3.3 178 5 C177.030625 5.433125 176.06125 5.86625 175.0625 6.3125 C171.72268235 7.7014861 171.72268235 7.7014861 171 11 C170.9051336 12.83039627 170.86937439 14.66408258 170.86628723 16.49693298 C170.86202225 17.63960129 170.85775726 18.78226959 170.85336304 19.95956421 C170.85381622 21.21419464 170.85426941 22.46882507 170.85473633 23.76147461 C170.85174437 25.09531244 170.84834175 26.42914941 170.84455872 27.76298523 C170.83571875 31.38693215 170.83338062 35.01085546 170.83274293 38.63481212 C170.8317937 41.65923263 170.82811527 44.68364765 170.82457083 47.70806605 C170.81642646 54.84273372 170.8139866 61.97738876 170.81469727 69.11206055 C170.81529823 76.4744047 170.80474271 83.83667563 170.7889536 91.19900125 C170.77588357 97.51839606 170.77051313 103.83776691 170.77115268 110.15717512 C170.7714078 113.93218628 170.76854861 117.70713235 170.75797462 121.48213005 C170.74830253 125.03207873 170.74820829 128.58189997 170.75549126 132.1318531 C170.75703755 134.05621074 170.74868434 135.98056833 170.74005127 137.90490723 C170.74424576 139.05039536 170.74844025 140.19588348 170.75276184 141.37608337 C170.75221707 142.37141051 170.75167231 143.36673765 170.75111103 144.39222622 C171.0111737 147.11707422 171.48933566 148.72911743 173 151 C175.53770003 152.28254644 175.53770003 152.28254644 178 153 C178 154.65 178 156.3 178 158 C161.17 158 144.34 158 127 158 C127 156.35 127 154.7 127 153 C128.32 152.34 129.64 151.68 131 151 C130.51619964 146.34550686 128.80688757 144.23311519 125.625 140.875 C125.15674805 140.37709961 124.68849609 139.87919922 124.20605469 139.36621094 C118.54035127 133.40212565 112.67451919 127.62370418 106.81494141 121.85107422 C103.2994368 118.37481651 99.85336355 114.90037658 96.640625 111.140625 C91.90604411 105.62835703 86.66887877 100.59958643 81.5 95.5 C79.48650477 93.51349704 77.47663278 91.523424 75.46875 89.53125 C74.58638672 88.66048828 73.70402344 87.78972656 72.79492188 86.89257812 C69.40194051 83.38104396 66.21544467 79.67479391 63 76 C55.74 68.74 48.48 61.48 41 54 C41 86.01 41 118.02 41 151 C43.97 151.99 43.97 151.99 47 153 C47 154.65 47 156.3 47 158 C31.49 158 15.98 158 0 158 C0 156.35 0 154.7 0 153 C0.97398743 152.50999512 1.94797485 152.01999023 2.95147705 151.51513672 C6.19650969 149.36337794 6.19650969 149.36337794 6.57057953 146.425354 C6.78421399 142.85842442 6.81005128 139.3311748 6.77636719 135.7578125 C6.78449927 134.38440277 6.79518343 133.01100613 6.80822754 131.63763428 C6.83558165 127.91012242 6.82497651 124.18360685 6.80595303 120.45607758 C6.79076278 116.55548923 6.80485015 112.65498622 6.81427002 108.75439453 C6.82518621 102.20394573 6.81079995 95.6539028 6.78222656 89.10351562 C6.74957218 81.53010852 6.76014921 73.9576705 6.793185 66.38428688 C6.82041253 59.88220232 6.82425551 53.38040951 6.80855298 46.87828636 C6.79919827 42.99472544 6.79795226 39.11162004 6.81777191 35.22808838 C6.83510488 31.57675058 6.82308502 27.92666208 6.78840637 24.27545929 C6.7766874 22.29626687 6.79451515 20.31696878 6.81317139 18.33782959 C6.76677464 15.10822956 6.69887167 12.15354312 6 9 C3.11514278 6.43045527 3.11514278 6.43045527 0 5 C0 3.35 0 1.7 0 0 Z " fill="#07574D" transform="translate(2048,1829)"/>
<path d="M0 0 C13.88367444 -0.04703002 27.76733625 -0.08200535 41.65107441 -0.10362434 C48.09968667 -0.11400679 54.54824496 -0.12806335 60.99682617 -0.15087891 C67.2343873 -0.17280665 73.4718969 -0.18461013 79.70949364 -0.18975449 C82.0745951 -0.19341481 84.43969415 -0.20056101 86.80477333 -0.21146011 C135.36342269 -0.42608404 135.36342269 -0.42608404 151.15625 13.96484375 C161.69834589 24.84129716 163.50057465 37.65701375 163.27734375 52.11328125 C162.79740303 64.44608638 158.06326198 73.33043283 149.3125 81.6875 C141.87477572 87.92834911 131.75071949 92.18179308 122 92 C127.96912975 101.78398711 134.6017171 111.09582371 141.20996094 120.453125 C142.90588735 122.86609613 144.58484757 125.28982238 146.2578125 127.71875 C156.36482325 143.76080767 156.36482325 143.76080767 172 153 C172 154.65 172 156.3 172 158 C152.86 158 133.72 158 114 158 C114 156.35 114 154.7 114 153 C115.65 152.34 117.3 151.68 119 151 C118.43267807 146.85253638 117.08751959 144.20790407 114.75390625 140.75390625 C114.08625244 139.7585083 113.41859863 138.76311035 112.73071289 137.73754883 C112.01520264 136.68978271 111.29969238 135.6420166 110.5625 134.5625 C109.83474365 133.48444092 109.1069873 132.40638184 108.35717773 131.2956543 C103.80159465 124.57117908 99.23062757 117.85551975 94.34375 111.36621094 C92.70579807 109.11985081 91.57067669 107.12432071 90.32617188 104.5859375 C86.92239468 98.0382173 86.92239468 98.0382173 80.84786987 94.27816772 C74.5807262 93.18885943 68.26823776 93.47667311 61.9375 93.6875 C60.00329834 93.70451074 58.06903544 93.71563403 56.13476562 93.72070312 C51.41973647 93.74579912 46.71267386 93.85097134 42 94 C42.04159602 101.61758696 42.11385054 109.23443898 42.20751953 116.8515625 C42.23576107 119.44329188 42.25695965 122.03510789 42.27099609 124.62695312 C42.29238062 128.35071271 42.33901086 132.07342701 42.390625 135.796875 C42.39185364 136.95741394 42.39308228 138.11795288 42.39434814 139.31365967 C42.41406677 140.39447815 42.4337854 141.47529663 42.45410156 142.58886719 C42.46298401 143.53928894 42.47186646 144.48971069 42.48101807 145.46893311 C43.14918415 148.7275688 44.4687265 149.912514 47 152 C47.66 152.33 48.32 152.66 49 153 C49 154.65 49 156.3 49 158 C32.83 158 16.66 158 0 158 C0 156.35 0 154.7 0 153 C2.4375 151.3125 2.4375 151.3125 5 150 C6.3067817 147.3864366 6.12886382 145.46858807 6.13371277 142.54066467 C6.13797775 141.38109756 6.14224274 140.22153046 6.14663696 139.02682495 C6.14618378 137.74832672 6.14573059 136.46982849 6.14526367 135.15258789 C6.14825461 133.79757087 6.15165698 132.44255471 6.15544128 131.08753967 C6.16429194 127.40161927 6.16661984 123.71572207 6.16725707 120.02979207 C6.16820536 116.95562094 6.17188271 113.88145525 6.17542917 110.8072862 C6.18357769 103.55617304 6.18601303 96.30507229 6.18530273 89.05395508 C6.18470175 81.56721225 6.19525675 74.08054142 6.2110464 66.59381682 C6.22410949 60.17169863 6.22948715 53.74960401 6.22884732 47.32747263 C6.22859198 43.48932169 6.23146299 39.65123473 6.24202538 35.813097 C6.25168576 32.20406947 6.2517998 28.59516735 6.24450874 24.98613548 C6.2429596 23.02698538 6.25132391 21.06783535 6.25994873 19.10870361 C6.25575424 17.94631668 6.25155975 16.78392975 6.24723816 15.58631897 C6.24805531 14.06787431 6.24805531 14.06787431 6.24888897 12.51875401 C6.17490076 9.75297674 6.17490076 9.75297674 4 7 C1.94996045 5.80767387 1.94996045 5.80767387 0 5 C0 3.35 0 1.7 0 0 Z M42 27 C42 40.2 42 53.4 42 67 C53.84177568 67.08739379 53.84177568 67.08739379 65.68359375 67.14648438 C70.52012116 67.16435251 75.35647667 67.18539029 80.19287109 67.22631836 C84.09621681 67.25914022 87.99937793 67.27690061 91.9028511 67.28463173 C93.38505581 67.2901346 94.8672515 67.30087933 96.34937668 67.31719017 C110.17716097 67.63274493 110.17716097 67.63274493 122.47265625 62.09765625 C122.99730469 61.42605469 123.52195312 60.75445313 124.0625 60.0625 C124.61035156 59.39347656 125.15820312 58.72445313 125.72265625 58.03515625 C128.74261738 53.22353623 128.59530665 47.5065865 128 42 C126.32878364 36.67753919 123.7614615 33.01946339 119 30 C113.30666432 27.22632364 107.51656597 26.87448934 101.26025391 26.88647461 C100.61564209 26.88632858 99.97103027 26.88618256 99.30688477 26.8860321 C97.19674195 26.88672339 95.08668971 26.89447867 92.9765625 26.90234375 C91.5054021 26.90421072 90.03424108 26.90563331 88.56307983 26.90663147 C84.70634215 26.91043467 80.84964262 26.92024602 76.99291992 26.93133545 C72.35726205 26.94340374 67.72159136 26.94796228 63.08592224 26.95378876 C56.05725503 26.96345909 49.02867139 26.98263096 42 27 Z " fill="#07574D" transform="translate(1597,1829)"/>
<path d="M0 0 C14.03132917 -0.04700546 28.06264589 -0.08199365 42.09403801 -0.10362434 C48.61105985 -0.11401181 55.12802837 -0.12807786 61.64501953 -0.15087891 C67.94741456 -0.17278834 74.24975867 -0.18460638 80.55218887 -0.18975449 C82.94323654 -0.19341802 85.33428178 -0.2005708 87.72530746 -0.21146011 C135.38795321 -0.41967324 135.38795321 -0.41967324 152.75 15.1875 C162.29893802 25.2016995 163.5894683 39.10341178 163.3125 52.21875 C162.72816108 64.50934527 158.04479279 73.3480711 149.3125 81.6875 C141.87477572 87.92834911 131.75071949 92.18179308 122 92 C127.43029509 100.85291066 133.37769971 109.29380155 139.40185547 117.74755859 C140.99839846 119.99774277 142.58134446 122.25687793 144.16015625 124.51953125 C155.17665707 142.25039038 155.17665707 142.25039038 172 153 C172 154.65 172 156.3 172 158 C152.86 158 133.72 158 114 158 C114 156.35 114 154.7 114 153 C115.65 152.34 117.3 151.68 119 151 C118.55708805 145.65342008 115.58243788 141.96803828 112.625 137.6875 C112.08625244 136.89424316 111.54750488 136.10098633 110.99243164 135.28369141 C109.33649074 132.85006657 107.66933497 130.42445094 106 128 C105.04780362 126.60832837 104.09596021 125.21641515 103.14453125 123.82421875 C100.90605006 120.55462615 98.65592498 117.29322558 96.40283203 114.03369141 C94.89815479 111.85235458 93.39963651 109.66688035 91.90234375 107.48046875 C91.39582275 106.74135254 90.88930176 106.00223633 90.36743164 105.24072266 C89.39065126 103.81509946 88.41455001 102.38901066 87.43920898 100.96240234 C85.39844935 97.83803229 85.39844935 97.83803229 83 95 C79.97192956 94.8396444 76.96414546 94.74039552 73.93359375 94.68359375 C73.02497086 94.66281265 72.11634796 94.64203156 71.18019104 94.62062073 C68.26604054 94.55502328 65.35179696 94.4961932 62.4375 94.4375 C60.46678709 94.39432446 58.49608374 94.35071049 56.52539062 94.30664062 C51.68369012 94.19933157 46.84189563 94.09809325 42 94 C42.09227402 101.475 42.19958069 108.9496754 42.31738281 116.42431641 C42.35568566 118.96756076 42.3905362 121.51085952 42.421875 124.05419922 C42.46749662 127.70820577 42.52549678 131.36183727 42.5859375 135.015625 C42.59748871 136.15429016 42.60903992 137.29295532 42.62094116 138.46612549 C42.64081085 139.52692322 42.66068054 140.58772095 42.68115234 141.68066406 C42.69447601 142.61332092 42.70779968 143.54597778 42.7215271 144.50689697 C43.01708643 147.15297087 43.54442719 148.77915565 45 151 C47.53770003 152.28254644 47.53770003 152.28254644 50 153 C50 154.65 50 156.3 50 158 C33.5 158 17 158 0 158 C0 156.35 0 154.7 0 153 C2.4375 151.3125 2.4375 151.3125 5 150 C6.30481314 147.39037373 6.13480849 145.47096517 6.14717102 142.5473938 C6.15432632 141.38927185 6.16148163 140.2311499 6.16885376 139.03793335 C6.17154266 137.76100616 6.17423157 136.48407898 6.17700195 135.16845703 C6.18326586 133.8150617 6.1899126 132.46166809 6.19691467 131.10827637 C6.21432929 127.42643146 6.22487735 123.74459953 6.2331202 120.06272364 C6.23826865 117.76344101 6.2443444 115.46416243 6.25063133 113.16488266 C6.26968342 105.9738349 6.28391536 98.78279743 6.2922433 91.59172928 C6.30202139 83.2852548 6.32835549 74.9790464 6.36874419 66.67266572 C6.39887787 60.25562852 6.41370949 53.83866772 6.41702431 47.42156112 C6.41937767 43.58719643 6.42837481 39.75311599 6.45348549 35.91882706 C6.476724 32.31216013 6.48101688 28.70596547 6.47072411 25.09924316 C6.46999077 23.14382901 6.48911107 21.18843906 6.50878906 19.23312378 C6.50184525 18.06936218 6.49490143 16.90560059 6.48774719 15.70657349 C6.49013555 14.69519884 6.4925239 13.6838242 6.49498463 12.64180183 C5.86617787 9.28577267 4.61070292 8.12623809 2 6 C1.34 5.67 0.68 5.34 0 5 C0 3.35 0 1.7 0 0 Z M42 27 C42 40.2 42 53.4 42 67 C53.84177568 67.08739379 53.84177568 67.08739379 65.68359375 67.14648438 C70.52012116 67.16435251 75.35647667 67.18539029 80.19287109 67.22631836 C84.09621681 67.25914022 87.99937793 67.27690061 91.9028511 67.28463173 C93.38505581 67.2901346 94.8672515 67.30087933 96.34937668 67.31719017 C110.48801622 67.5824242 110.48801622 67.5824242 122.9375 61.6875 C128.12772289 54.9244823 128.83102715 49.39106576 128 41 C126.29108911 35.77832784 123.42170415 33.18362698 119 30 C113.3569605 27.17848025 107.48499386 26.87454982 101.26025391 26.88647461 C100.61564209 26.88632858 99.97103027 26.88618256 99.30688477 26.8860321 C97.19674195 26.88672339 95.08668971 26.89447867 92.9765625 26.90234375 C91.5054021 26.90421072 90.03424108 26.90563331 88.56307983 26.90663147 C84.70634215 26.91043467 80.84964262 26.92024602 76.99291992 26.93133545 C72.35726205 26.94340374 67.72159136 26.94796228 63.08592224 26.95378876 C56.05725503 26.96345909 49.02867139 26.98263096 42 27 Z " fill="#07574D" transform="translate(564,1829)"/>
<path d="M0 0 C12.57983729 -0.04663252 25.15965354 -0.08202467 37.73956013 -0.10362434 C43.58283383 -0.11399849 49.42604778 -0.12803928 55.26928711 -0.15087891 C60.92330183 -0.17283701 66.57725959 -0.18461631 72.23131371 -0.18975449 C74.37312909 -0.19340949 76.51494187 -0.20054475 78.65673256 -0.21146011 C88.96071084 -0.2618164 99.17954017 -0.17847384 109.43823242 0.87158203 C110.18295712 0.94719801 110.92768183 1.02281399 111.69497395 1.10072136 C130.46236118 3.27831431 146.53534232 11.62656274 158.6875 26.1875 C173.45122859 46.31352624 176.77616896 72.610404 173.17944336 96.88085938 C169.79332451 116.43608998 160.62966586 133.56886514 144.4140625 145.41015625 C128.89554699 155.63027892 110.79126623 158.1840894 92.52319336 158.11352539 C91.01429535 158.11374443 91.01429535 158.11374443 89.47491455 158.1139679 C86.17986832 158.11327626 82.88488 158.10551918 79.58984375 158.09765625 C77.29342174 158.09578941 74.99699933 158.09436676 72.70057678 158.09336853 C66.67875047 158.08956432 60.65694856 158.07975206 54.63513184 158.06866455 C48.48136729 158.05840523 42.32759877 158.05386125 36.17382812 158.04882812 C24.11587474 158.0381278 12.0579394 158.02107672 0 158 C0 156.35 0 154.7 0 153 C0.969375 152.566875 1.93875 152.13375 2.9375 151.6875 C6.27731765 150.2985139 6.27731765 150.2985139 7 147 C7.09281837 145.16730665 7.12628918 143.33138004 7.12698364 141.49633789 C7.12980347 140.35222443 7.13262329 139.20811096 7.13552856 138.02932739 C7.13350433 136.77312592 7.1314801 135.51692444 7.12939453 134.22265625 C7.13074946 132.88719637 7.13252991 131.55173687 7.13470459 130.21627808 C7.13926798 126.58826152 7.13749384 122.96027337 7.1343255 119.33225632 C7.13179627 115.53799105 7.13414102 111.74372825 7.13571167 107.94946289 C7.13753171 101.57730675 7.13513138 95.20516219 7.13037109 88.83300781 C7.12492879 81.46271238 7.12669156 74.09244461 7.1321975 66.72214985 C7.13673332 60.39767628 7.13737687 54.07321105 7.13475883 47.74873638 C7.13319865 43.96986627 7.13299524 40.19100917 7.13629532 36.41213989 C7.13918082 32.85975981 7.13718579 29.30741544 7.13140106 25.75503922 C7.12944483 23.82691751 7.13242161 21.8987928 7.13552856 19.97067261 C7.13270874 18.82655914 7.12988892 17.68244568 7.12698364 16.50366211 C7.12660662 15.50741318 7.12622959 14.51116425 7.12584114 13.48472595 C7.10446584 10.86700157 7.10446584 10.86700157 6 8 C2.99992729 6.29144978 2.99992729 6.29144978 0 5 C0 3.35 0 1.7 0 0 Z M43 27 C43 61.32 43 95.64 43 131 C51.62125 131.061875 60.2425 131.12375 69.125 131.1875 C71.81672363 131.21481201 74.50844727 131.24212402 77.28173828 131.27026367 C102.88953129 131.63131343 102.88953129 131.63131343 124.8125 119.6875 C136.89192249 106.44550398 138.67139322 89.59429195 138.13183594 72.37841797 C137.45652301 60.19527257 133.21424451 47.5607819 124.75 38.5234375 C103.17510847 19.74172389 67.2965894 27 43 27 Z " fill="#07574D" transform="translate(174,1829)"/>
<path d="M0 0 C16.5 0 33 0 50 0 C50 1.65 50 3.3 50 5 C48.02 5.66 46.04 6.32 44 7 C42.94615672 11.30659726 42.8519999 15.49410217 42.85473633 19.90112305 C42.85137772 20.68248627 42.8480191 21.46384949 42.84455872 22.26889038 C42.83507112 24.84984946 42.8331057 27.43074332 42.83203125 30.01171875 C42.8288136 31.82233201 42.82544915 33.63294501 42.82194519 35.44355774 C42.81595685 39.24566244 42.81410463 43.04774443 42.81469727 46.84985352 C42.81479806 51.67167324 42.80123138 56.49334293 42.78392506 61.31512737 C42.77267751 65.06202329 42.77078203 68.80888462 42.77130699 72.55579567 C42.77014268 74.33001019 42.76581033 76.10422609 42.75797462 77.87842369 C42.72171419 86.94853418 42.92441408 95.91101835 43.8815918 104.93676758 C43.95812139 105.67952029 44.03465097 106.42227301 44.11349964 107.18753338 C45.03752232 114.98088247 47.69714284 119.27481139 53.5625 124.25 C66.73598843 133.42394735 85.82645135 133.75907392 101.20703125 131.46875 C111.07465736 129.50163927 120.1440738 126.39829669 126.1875 117.9375 C131.78994128 107.10389104 130.29291171 93.50978708 130.265625 81.6875 C130.26697403 79.62532506 130.26891654 77.56315042 130.27142334 75.50097656 C130.27435812 71.200978 130.27012663 66.90106301 130.26074219 62.60107422 C130.24929097 57.08516372 130.2559532 51.56944667 130.26788712 46.05354309 C130.27510128 41.80542532 130.27282082 37.55735375 130.26763153 33.30923462 C130.26629678 31.27422055 130.26793665 29.2392023 130.27259064 27.20419312 C130.2776548 24.37038972 130.26994978 21.5369046 130.25878906 18.703125 C130.26486176 17.44079796 130.26486176 17.44079796 130.27105713 16.15296936 C130.24251135 12.25175515 130.21373006 10.32059509 128 7 C125.94996045 5.80767387 125.94996045 5.80767387 124 5 C124 3.35 124 1.7 124 0 C139.51 0 155.02 0 171 0 C171 1.65 171 3.3 171 5 C169.02 5.66 167.04 6.32 165 7 C163.71307673 11.93330582 163.85528085 16.81706124 163.8581543 21.87646484 C163.85467987 22.86747192 163.85120544 23.858479 163.84762573 24.8795166 C163.84028155 27.02985449 163.83492905 29.1801999 163.83133507 31.33054733 C163.82414487 34.74603078 163.80845625 38.16137261 163.78999329 41.57681274 C163.73766438 51.28767886 163.68962543 60.99846877 163.67407227 70.70947266 C163.66392768 76.65468226 163.63443549 82.59953668 163.59275246 88.54460526 C163.58052478 90.79854253 163.57530596 93.05253016 163.57755089 95.30649948 C163.59046077 112.50879461 163.24318525 129.24905617 151.328125 142.91796875 C133.85002324 159.83587494 105.76869131 161.36942517 82.84814453 161.234375 C61.30158005 160.85196232 35.93175235 158.52820949 19.3125 143.125 C8.47962194 130.88432501 6.82579804 114.51431661 6.88989258 98.86206055 C6.88935052 96.85349018 6.88876358 94.84491983 6.88813782 92.83634949 C6.88956598 91.78521658 6.89099415 90.73408367 6.89246559 89.65109825 C6.8960079 84.05315817 6.87018312 78.45531587 6.84960938 72.85742188 C6.82522957 65.74885538 6.80965628 58.64058508 6.82495117 51.53198242 C6.83658373 45.770129 6.81930662 40.00900264 6.78250694 34.24726295 C6.77387786 32.05399959 6.77599257 29.86066686 6.789011 27.66742516 C6.80583141 24.60778779 6.78579319 21.55046737 6.75708008 18.4909668 C6.77087204 17.58441345 6.784664 16.67786011 6.7988739 15.74383545 C6.75508518 13.3441644 6.6790934 11.30292323 6 9 C3.04497856 6.69731412 3.04497856 6.69731412 0 5 C0 3.35 0 1.7 0 0 Z " fill="#07574D" transform="translate(1396,1829)"/>
<path d="M0 0 C16.5 0 33 0 50 0 C50 1.65 50 3.3 50 5 C47.5625 6.6875 47.5625 6.6875 45 8 C43.35153359 11.29693282 43.85279298 14.96544549 43.85473633 18.58959961 C43.85137772 19.4793045 43.8480191 20.3690094 43.84455872 21.28567505 C43.83502446 24.24124533 43.83310375 27.19675902 43.83203125 30.15234375 C43.82881818 32.20821659 43.82545407 34.26408919 43.82194519 36.31996155 C43.8159462 40.64015227 43.81410586 44.96032298 43.81469727 49.28051758 C43.81479843 54.79476408 43.80119723 60.30888049 43.78392506 65.82309628 C43.77275459 70.07583698 43.77077968 74.32854687 43.77130699 78.58130074 C43.77013251 80.61249804 43.76574083 82.64369628 43.75797462 84.67487907 C43.00501152 103.71161765 43.00501152 103.71161765 49.84765625 120.92578125 C60.66291483 131.34847146 75.73731849 132.38109701 89.93847656 132.37353516 C102.9723805 132.10189875 115.24976882 129.60022604 124.8125 120.25 C133.20654732 107.77884398 131.15138662 91.02127233 131.1328125 76.62890625 C131.13348747 74.77473437 131.1344591 72.92056257 131.13571167 71.06639099 C131.137177 67.20448961 131.13507009 63.34261154 131.13037109 59.48071289 C131.12464636 54.53566691 131.12797745 49.59067489 131.13394356 44.64563084 C131.13755684 40.82722059 131.13640753 37.00882315 131.13381577 33.19041252 C131.13315008 31.36638317 131.13396239 29.54235264 131.13629532 27.71832466 C131.1388375 25.17489658 131.13496039 22.63155631 131.12939453 20.08813477 C131.13243088 18.96518509 131.13243088 18.96518509 131.13552856 17.81954956 C131.1204153 14.08751782 130.89499473 10.62881246 130 7 C128.02 6.34 126.04 5.68 124 5 C124 3.35 124 1.7 124 0 C139.51 0 155.02 0 171 0 C171 1.65 171 3.3 171 5 C168.5625 6.6875 168.5625 6.6875 166 8 C164.86763739 10.26472523 164.87076038 11.49818948 164.86196899 14.0118866 C164.85651566 14.85120224 164.85106232 15.69051788 164.84544373 16.55526733 C164.8444014 17.47828644 164.84335907 18.40130554 164.84228516 19.35229492 C164.83720444 20.32335678 164.83212372 21.29441864 164.82688904 22.29490662 C164.81616622 24.41091693 164.80755359 26.52693871 164.80076981 28.64296532 C164.78898136 32.00359874 164.7695229 35.36410362 164.74765015 38.72468567 C164.68607244 48.28280273 164.63221611 57.84091041 164.59863281 67.39916992 C164.57754496 73.24361777 164.54211724 79.08783733 164.49787521 84.9321537 C164.4838119 87.14980673 164.47501489 89.36750022 164.47182083 91.58519554 C164.41274951 128.71205078 164.41274951 128.71205078 151.625 143.25 C132.04600478 161.15079563 101.01723879 162.10770142 76 161 C55.69830754 159.84242973 34.53224296 156.17871893 19 142 C9.48412179 131.17304523 7.85774933 116.64366762 7.84228516 102.79785156 C7.83720444 101.79703049 7.83212372 100.79620941 7.82688904 99.76506042 C7.81622713 97.60218415 7.80759074 95.43929713 7.80076981 93.27640533 C7.7889416 89.85565996 7.76948258 86.4350386 7.74765015 83.01434326 C7.68613714 73.29231862 7.63186029 63.57031045 7.59863281 53.84814453 C7.57773915 47.89424422 7.54249052 41.94057653 7.49787521 35.98680878 C7.48368561 33.71737139 7.47498614 31.44789293 7.47182083 29.17841339 C7.46693567 26.01354914 7.4438435 22.84930868 7.41650391 19.68457031 C7.41951004 18.74322739 7.42251617 17.80188446 7.4256134 16.83201599 C7.41452042 15.97135025 7.40342743 15.11068451 7.39199829 14.22393799 C7.38868814 13.47623768 7.385378 12.72853737 7.38196754 11.95817947 C6.89268119 9.44982371 5.95874943 8.59184208 4 7 C1.90010348 5.82425289 1.90010348 5.82425289 0 5 C0 3.35 0 1.7 0 0 Z " fill="#07574D" transform="translate(754,1829)"/>
<path d="M0 0 C18.48 0 36.96 0 56 0 C56 1.65 56 3.3 56 5 C54.34467377 6.01866229 52.67739862 7.01810813 51 8 C50.07780499 10.75639984 49.82407825 12.42094284 50.67407227 15.21875 C51.05104248 15.9715625 51.4280127 16.724375 51.81640625 17.5 C56.52944723 26.93260046 61.20011678 36.38255175 65.76144409 45.8895874 C71.29745251 57.42661727 76.914954 68.91915961 82.6484375 80.359375 C82.96593145 80.99293411 83.28342541 81.62649323 83.61054039 82.2792511 C85.86243334 86.77097226 88.11831239 91.26068629 90.375 95.75 C92.96874227 100.91015831 95.56044908 106.07132832 98.1484375 111.234375 C98.45552454 111.84661297 98.76261158 112.45885094 99.07900429 113.08964157 C103.04927933 121.01089095 106.95602795 128.95437484 110.63156128 137.01727295 C113.53143032 143.33597855 116.30778921 149.07831504 122.875 152 C123.90625 152.33 124.9375 152.66 126 153 C126 154.65 126 156.3 126 158 C106.53 158 87.06 158 67 158 C67 156.35 67 154.7 67 153 C68.98 152.01 70.96 151.02 73 150 C73.90176363 142.755149 70.72869097 137.52192197 67.5 131.1875 C66.46563676 129.12004423 65.43422666 127.05110746 64.40625 124.98046875 C63.71499023 123.61764771 63.71499023 123.61764771 63.00976562 122.22729492 C62 120 62 120 62 118 C26.855 118.495 26.855 118.495 -9 119 C-20.48609716 139.66044937 -20.48609716 139.66044937 -20 150 C-18.02 150.99 -16.04 151.98 -14 153 C-14 154.65 -14 156.3 -14 158 C-31.49 158 -48.98 158 -67 158 C-67 156.35 -67 154.7 -67 153 C-65.845 152.649375 -64.69 152.29875 -63.5 151.9375 C-56.58927595 148.35550167 -54.11981486 140.72850792 -51 134 C-50.57187012 133.08250977 -50.14374023 132.16501953 -49.70263672 131.21972656 C-47.6650414 126.8447846 -45.6361575 122.46600898 -43.62231445 118.08007812 C-38.58789512 107.13475498 -33.30592671 96.31578458 -28 85.5 C-21.63898647 72.52664213 -15.35618202 59.52977603 -9.3371582 46.39379883 C-6.95080831 41.18582317 -4.53016888 36.00526067 -1.98828125 30.87109375 C-1.27792725 29.42621582 -1.27792725 29.42621582 -0.55322266 27.95214844 C0.32217477 26.18007114 1.20829049 24.41322459 2.10791016 22.65332031 C4.42213811 17.95093362 5.73390427 14.37053312 5 9 C3.37373596 7.61767557 1.7074998 6.28062485 0 5 C0 3.35 0 1.7 0 0 Z M26 42 C22.25951031 50.03851223 18.52507882 58.07980704 14.796875 66.12402344 C13.63402159 68.63305031 12.46995365 71.14150688 11.3046875 73.64941406 C9.76176789 76.97284053 8.22390443 80.2985576 6.6875 83.625 C5.97726685 85.15157227 5.97726685 85.15157227 5.25268555 86.70898438 C4.8225415 87.64291016 4.39239746 88.57683594 3.94921875 89.5390625 C3.57112061 90.35584473 3.19302246 91.17262695 2.8034668 92.01416016 C1.87497927 93.95196274 1.87497927 93.95196274 2 96 C18.17 96 34.34 96 51 96 C49.36723622 91.05064234 49.36723622 91.05064234 47.39941406 86.31225586 C47.09859924 85.65394272 46.79778442 84.99562958 46.487854 84.31736755 C46.16701843 83.6235347 45.84618286 82.92970184 45.515625 82.21484375 C45.17754822 81.47730362 44.83947144 80.73976349 44.4911499 79.97987366 C43.41365874 77.63107489 42.33189818 75.28427155 41.25 72.9375 C40.53878159 71.38880085 39.82784171 69.83997375 39.1171875 68.29101562 C37.08248113 63.85866576 35.04235379 59.42883055 33 55 C32.53194946 53.98501434 32.53194946 53.98501434 32.05444336 52.94952393 C30.37078618 49.29914781 28.6859687 45.64930904 27 42 C26.67 42 26.34 42 26 42 Z " fill="#07574D" transform="translate(420,1829)"/>
<path d="M0 0 C18.48 0 36.96 0 56 0 C56 1.65 56 3.3 56 5 C54.35 5.66 52.7 6.32 51 7 C50.08530887 15.70952576 53.2224642 21.60810904 57.17578125 29.1953125 C57.8236909 30.47172639 58.46991204 31.7489986 59.11454773 33.02706909 C60.81591 36.38991471 62.5381612 39.74159965 64.26568604 43.09106445 C65.97810582 46.41825685 67.6736238 49.75401432 69.36914062 53.08984375 C70.03677409 54.40312941 70.70441221 55.71641271 71.37205505 57.0296936 C71.70063444 57.67615467 72.02921383 58.32261574 72.36775017 58.98866653 C73.36507643 60.9488408 74.36478439 62.90778584 75.36488342 64.86654663 C79.72404209 73.41494836 83.93972949 82.02291179 88.04806519 90.69482422 C92.72403688 100.56103372 97.5617714 110.3446 102.43676758 120.11376953 C103.96677336 123.18373721 105.48818858 126.25787894 107.00976562 129.33203125 C107.99427025 131.3075516 108.97927655 133.28282204 109.96484375 135.2578125 C110.41278793 136.16604767 110.86073212 137.07428284 111.32225037 138.01004028 C115.34233502 146.54185371 115.34233502 146.54185371 122.75 151.8125 C123.8225 152.204375 124.895 152.59625 126 153 C126 154.65 126 156.3 126 158 C106.53 158 87.06 158 67 158 C67 156.35 67 154.7 67 153 C67.969375 152.5875 68.93875 152.175 69.9375 151.75 C73.06040939 150.37570364 73.06040939 150.37570364 73.78125 148.15625 C74.53256181 140.75046215 67.97611504 131.80594953 64.64282227 125.35839844 C62 120.20636221 62 120.20636221 62 118 C38.57 118 15.14 118 -9 118 C-9.66 119.98 -10.32 121.96 -11 124 C-11.68943186 125.52525213 -12.40993877 127.03692482 -13.1640625 128.53125 C-13.56367187 129.34207031 -13.96328125 130.15289063 -14.375 130.98828125 C-15.20988999 132.66588832 -16.05107085 134.340379 -16.8984375 136.01171875 C-19.9792504 142.19620361 -19.9792504 142.19620361 -20 149 C-18.01924973 150.36176581 -16.01920337 151.69593116 -14 153 C-14 154.65 -14 156.3 -14 158 C-31.16 158 -48.32 158 -66 158 C-66 156.35 -66 154.7 -66 153 C-65.113125 152.67 -64.22625 152.34 -63.3125 152 C-56.74356381 148.03384985 -53.8492877 139.97260152 -50.59375 133.234375 C-50.19244873 132.41221497 -49.79114746 131.59005493 -49.37768555 130.74298096 C-48.08034155 128.08094962 -46.78989806 125.41564625 -45.5 122.75 C-44.59319866 120.88406613 -43.68629667 119.01818116 -42.77929688 117.15234375 C-37.40860122 106.08331259 -32.15215445 94.97009775 -27.02685547 83.78515625 C-21.26213836 71.26895212 -15.16078546 58.91586528 -9.06445312 46.55859375 C-5.25238419 38.81700608 -1.47319325 31.05762534 2.1015625 23.203125 C2.39847992 22.57460632 2.69539734 21.94608765 3.00131226 21.29852295 C4.88600211 17.06691066 5.48886062 13.61127864 5 9 C3.37373596 7.61767557 1.7074998 6.28062485 0 5 C0 3.35 0 1.7 0 0 Z M26 43 C23.70664945 47.85207618 21.41378739 52.70438281 19.12133789 57.55688477 C18.34477268 59.2004997 17.56808419 60.84405639 16.79125977 62.48754883 C14.55048393 67.22837578 12.31321836 71.97083588 10.07879639 76.71466064 C9.01641793 78.96521999 7.9483629 81.21301387 6.87939453 83.46044922 C6.23327169 84.82643745 5.587269 86.19248252 4.94140625 87.55859375 C4.64201645 88.18419693 4.34262665 88.80980011 4.03416443 89.45436096 C2.48586077 92.59044095 2.48586077 92.59044095 2 96 C18.17 96 34.34 96 51 96 C48.94435708 89.83307125 46.82833239 84.1130393 44.09375 78.2734375 C43.54479065 77.08556137 43.54479065 77.08556137 42.98474121 75.87368774 C41.82762753 73.37202622 40.66409194 70.87342084 39.5 68.375 C38.3372517 65.8688354 37.17585995 63.36204853 36.01525879 60.85488892 C35.29666328 59.30369945 34.57662047 57.75317931 33.8548584 56.20346069 C31.82427794 51.83318269 29.87620434 47.43884269 28 43 C27.34 43 26.68 43 26 43 Z " fill="#07574D" transform="translate(1904,1829)"/>
<path d="M0 0 C16.5 0 33 0 50 0 C50 1.65 50 3.3 50 5 C49.02594208 5.52277527 48.05188416 6.04555054 47.04830933 6.58416748 C43.84657761 8.61589724 43.84657761 8.61589724 43.43057632 11.29850006 C43.21911984 14.42929523 43.19300574 17.51536934 43.22705078 20.65332031 C43.21642105 21.84384003 43.20579132 23.03435974 43.19483948 24.26095581 C43.17155841 27.52138069 43.17475331 30.78049178 43.18970728 34.04092503 C43.19908617 37.44965218 43.17463792 40.8581326 43.15377808 44.26678467 C43.11942896 50.71953442 43.11550158 57.17192984 43.12250316 63.62475276 C43.1289939 70.97185088 43.10157176 78.31869997 43.07130075 85.66572428 C43.00979871 100.77717651 42.99088507 115.888413 43 131 C55.85632688 130.93886411 68.7124495 130.86181244 81.56855488 130.76428509 C87.53779572 130.71950547 93.5069671 130.68026612 99.47631836 130.65356445 C105.23413893 130.62760721 110.99169329 130.58725875 116.74934959 130.53681374 C118.94900394 130.52009363 121.14870438 130.50861151 123.34841347 130.50238609 C126.42307247 130.4928009 129.49704244 130.46480864 132.5715332 130.43237305 C133.94393913 130.43452568 133.94393913 130.43452568 135.34407043 130.4367218 C136.18119568 130.42418365 137.01832092 130.41164551 137.8808136 130.39872742 C138.9717556 130.39181397 138.9717556 130.39181397 140.08473682 130.38476086 C142.57835782 129.8838126 143.44509925 128.98087773 145 127 C145.33 126.01 145.66 125.02 146 124 C147.65 124 149.3 124 151 124 C151 137.53 151 151.06 151 165 C149.35 165 147.7 165 146 165 C145.51509094 164.02594208 145.03018188 163.05188416 144.53057861 162.04830933 C142.3599956 158.79676 142.3599956 158.79676 139.3819809 158.43057632 C135.74744995 158.21827348 132.15150498 158.19317485 128.51074219 158.22705078 C127.11113786 158.21887926 125.71154679 158.20807642 124.3119812 158.19483948 C120.51454435 158.1663831 116.7179739 158.17476129 112.92049313 158.18970728 C108.9512366 158.19908055 104.9821925 158.174643 101.01300049 158.15377808 C93.49778499 158.11941707 85.9828737 158.11550342 78.46759534 158.12250316 C69.91134552 158.12899191 61.35530971 158.10157686 52.79912329 158.07130075 C35.19938731 158.00978423 17.59983397 157.99088697 0 158 C0 156.35 0 154.7 0 153 C0.969375 152.566875 1.93875 152.13375 2.9375 151.6875 C6.27731765 150.2985139 6.27731765 150.2985139 7 147 C7.09274101 145.18446097 7.12628871 143.36566605 7.12698364 141.54776001 C7.12980347 140.41495102 7.13262329 139.28214203 7.13552856 138.11500549 C7.13249222 136.24944252 7.13249222 136.24944252 7.12939453 134.34619141 C7.13114685 133.03705276 7.13289917 131.72791412 7.13470459 130.37910461 C7.1392684 126.78607654 7.13749344 123.19307713 7.1343255 119.60004854 C7.13179543 115.84008487 7.13414135 112.08012368 7.13571167 108.32015991 C7.13753191 102.00347452 7.13513132 95.68680081 7.13037109 89.37011719 C7.12493346 82.07029807 7.12668809 74.7705069 7.1321975 67.47068846 C7.13673837 61.20308335 7.13737426 54.93548664 7.13475883 48.66788042 C7.13320082 44.92471698 7.13298918 41.18156667 7.13629532 37.43840408 C7.13972532 33.2631185 7.13496835 29.08788092 7.12939453 24.91259766 C7.13141876 23.67293747 7.13344299 22.43327728 7.13552856 21.15605164 C7.13270874 20.017603 7.12988892 18.87915436 7.12698364 17.70620728 C7.1264181 16.22566077 7.1264181 16.22566077 7.12584114 14.71520424 C7.00212497 12.04584938 6.59709151 9.60084973 6 7 C4.02 6.34 2.04 5.68 0 5 C0 3.35 0 1.7 0 0 Z " fill="#07574D" transform="translate(955,1829)"/>
<path d="M0 0 C2.88771554 1.44385777 3.14301103 3.27639553 4.1875 6.28125 C8.63638475 17.65062214 16.2470943 26.727447 23.70800781 36.24438477 C42.66187569 60.46918916 42.66187569 60.46918916 40.9375 75.96875 C36.96910743 97.4829286 26.26674164 120.37848403 11.9375 136.96875 C8.9375 138.96875 8.9375 138.96875 6.25 138.59375 C5.486875 138.3875 4.72375 138.18125 3.9375 137.96875 C3.78667969 136.91300781 3.78667969 136.91300781 3.6328125 135.8359375 C1.77421647 126.0846734 -3.07892118 119.55553974 -9.0625 111.96875 C-10.23733193 110.46772395 -11.41179528 108.96640937 -12.5859375 107.46484375 C-13.18897705 106.69406494 -13.7920166 105.92328613 -14.41333008 105.12915039 C-15.01943115 104.35434326 -15.62553223 103.57953613 -16.25 102.78125 C-16.85287842 102.01224365 -17.45575684 101.2432373 -18.0769043 100.45092773 C-22.46372236 94.82421211 -26.54849653 89.1929673 -30.0625 82.96875 C-30.49175781 82.25203125 -30.92101562 81.5353125 -31.36328125 80.796875 C-36.21743272 71.65572378 -34.94437269 62.08061263 -32.05810547 52.55737305 C-14.72545851 -0.22311301 -14.72545851 -0.22311301 0 0 Z " fill="#07574D" transform="translate(935.0625,1330.03125)"/>
<path d="M0 0 C2.44921875 0.98046875 2.44921875 0.98046875 3.6796875 3.4296875 C3.99550781 4.49832031 4.31132813 5.56695313 4.63671875 6.66796875 C8.69701471 18.25435847 16.84366212 27.2746574 24.39501953 36.78515625 C27.5289836 40.75089917 30.54586463 44.78022201 33.44921875 48.91796875 C34.15046875 49.91699219 34.85171875 50.91601562 35.57421875 51.9453125 C39.41977549 58.17030748 41.01182531 63.27445382 40.94921875 70.48046875 C40.94277344 71.26873047 40.93632813 72.05699219 40.9296875 72.86914062 C40.68648825 80.81151605 38.52993695 87.69003975 35.44921875 94.98046875 C35.15982422 95.68671387 34.87042969 96.39295898 34.57226562 97.12060547 C21.18947732 129.57599812 21.18947732 129.57599812 10.44921875 137.98046875 C7.71484375 138.703125 7.71484375 138.703125 5.44921875 138.98046875 C4.50295087 136.72398381 3.58021581 134.51812626 3 132.13671875 C0.18856787 121.44928883 -8.14232212 112.74877803 -14.85107422 104.23583984 C-35.66997387 77.79021056 -35.66997387 77.79021056 -34.55078125 62.98046875 C-33.95699912 60.24688189 -33.31737478 57.69808715 -32.48828125 55.04296875 C-32.26495117 54.31207031 -32.04162109 53.58117187 -31.81152344 52.828125 C-15.15315363 -0.11602721 -15.15315363 -0.11602721 0 0 Z " fill="#07574D" transform="translate(1103.55078125,820.01953125)"/>
<path d="M0 0 C0.22171875 0.74121094 0.4434375 1.48242188 0.671875 2.24609375 C5.42566804 16.31801009 14.87540482 27.42273223 24.04516602 38.88452148 C33.73589634 51.12572327 40.55303284 61.82257459 39 78 C35.20400685 97.1333392 24.05481403 125.17844808 9 138 C5.73046875 138.78125 5.73046875 138.78125 3 139 C2.79246094 138.18917969 2.58492187 137.37835937 2.37109375 136.54296875 C-1.13722309 123.93357894 -7.74367377 115.18912362 -15.93896484 105.26782227 C-37.00258793 79.60315755 -37.00258793 79.60315755 -36.453125 64.3359375 C-33.6837143 43.94734493 -21.53828443 14.36537225 -5.67578125 0.92578125 C-4 0 -4 0 0 0 Z " fill="#07574D" transform="translate(1185,944)"/>
<path d="M0 0 C9.343125 -0.0825 18.68625 -0.165 28.3125 -0.25 C32.70429565 -0.30462402 32.70429565 -0.30462402 37.18481445 -0.36035156 C39.53596262 -0.37204685 41.88711896 -0.38223668 44.23828125 -0.390625 C46.03235413 -0.4213208 46.03235413 -0.4213208 47.8626709 -0.45263672 C59.08222916 -0.45724765 67.95154061 1.97782487 76.125 9.859375 C82.26741927 16.87197033 84.54928608 26.03387246 84.30859375 35.22265625 C83.26840678 44.58433902 80.38337501 52.8975614 73 59 C65.63480392 64 65.63480392 64 61 64 C64.02314117 68.77993023 67.44095159 72.95872801 71.1875 77.1875 C72.34482298 78.5094781 73.50106603 79.83240236 74.65625 81.15625 C75.22214844 81.80464844 75.78804687 82.45304687 76.37109375 83.12109375 C86.50512375 94.81046648 86.50512375 94.81046648 89 100 C85.00126877 100.26342993 81.00478186 100.42186385 77 100.5625 C75.87464844 100.63791016 74.74929688 100.71332031 73.58984375 100.79101562 C65.32261508 101.00857427 65.32261508 101.00857427 61.53637695 98.12133789 C59.50020646 95.84115669 57.7286114 93.51884147 56 91 C55.29230469 90.15050781 54.58460937 89.30101563 53.85546875 88.42578125 C53.30503906 87.72839844 52.75460937 87.03101562 52.1875 86.3125 C51.52105469 85.49523438 50.85460938 84.67796875 50.16796875 83.8359375 C48.52173914 81.6824912 47.06339714 79.56773321 45.61328125 77.2890625 C45.18055908 76.65186279 44.74783691 76.01466309 44.30200195 75.3581543 C43.46220475 74.11932351 42.66122865 72.85283274 41.91088867 71.55786133 C40.52776571 69.39107878 40.52776571 69.39107878 37 67 C31.72 66.67 26.44 66.34 21 66 C21 77.22 21 88.44 21 100 C14.07 100 7.14 100 0 100 C0 67 0 34 0 0 Z M21 18 C21 27.9 21 37.8 21 48 C25.43017831 48.092242 29.85697707 48.17174241 34.28735352 48.21972656 C35.79170062 48.23974363 37.29597089 48.26696627 38.80004883 48.30175781 C40.97236162 48.35071945 43.14363906 48.37306653 45.31640625 48.390625 C47.27235718 48.4220459 47.27235718 48.4220459 49.26782227 48.45410156 C54.53521933 47.81320678 58.24865754 45.86433229 61.9375 41.9375 C63.61391872 37.30269532 63.65006862 32.86479921 63 28 C60.9976035 23.995207 58.82001123 21.3412972 55 19 C51.46173745 17.82057915 48.65851274 17.88710811 44.92578125 17.90234375 C44.2419487 17.9037587 43.55811615 17.90517365 42.8535614 17.90663147 C40.67316278 17.91222124 38.49286749 17.92477178 36.3125 17.9375 C34.83268378 17.94251633 33.35286594 17.947079 31.87304688 17.95117188 C28.24862624 17.9613357 24.62442856 17.9809129 21 18 Z " fill="#AF8B20" transform="translate(1727,2069)"/>
<path d="M0 0 C106.59 0 213.18 0 323 0 C323 5.61 323 11.22 323 17 C216.41 17 109.82 17 0 17 C0 11.39 0 5.78 0 0 Z " fill="#AF8B20" transform="translate(1903,2110)"/>
<path d="M0 0 C106.59 0 213.18 0 323 0 C323 5.61 323 11.22 323 17 C216.41 17 109.82 17 0 17 C0 11.39 0 5.78 0 0 Z " fill="#AF8B20" transform="translate(174,2110)"/>
<path d="M0 0 C25.08 0 50.16 0 76 0 C76 5.61 76 11.22 76 17 C57.85 17 39.7 17 21 17 C21 24.59 21 32.18 21 40 C38.16 40 55.32 40 73 40 C73 45.94 73 51.88 73 58 C55.84 58 38.68 58 21 58 C21 65.92 21 73.84 21 82 C39.48 82 57.96 82 77 82 C77 87.94 77 93.88 77 100 C51.59 100 26.18 100 0 100 C0 67 0 34 0 0 Z " fill="#AF8B20" transform="translate(1132,2069)"/>
<path d="M0 0 C24.75 0 49.5 0 75 0 C75 5.61 75 11.22 75 17 C57.18 17 39.36 17 21 17 C21 24.59 21 32.18 21 40 C38.16 40 55.32 40 73 40 C73 45.94 73 51.88 73 58 C55.84 58 38.68 58 21 58 C21 65.92 21 73.84 21 82 C39.48 82 57.96 82 77 82 C77 87.94 77 93.88 77 100 C51.59 100 26.18 100 0 100 C0 67 0 34 0 0 Z " fill="#AF8B20" transform="translate(1576,2069)"/>
<path d="M0 0 C24.75 0 49.5 0 75 0 C75 5.61 75 11.22 75 17 C56.85 17 38.7 17 20 17 C20 24.59 20 32.18 20 40 C37.16 40 54.32 40 72 40 C72 45.94 72 51.88 72 58 C54.84 58 37.68 58 20 58 C20 65.92 20 73.84 20 82 C38.48 82 56.96 82 76 82 C76 87.94 76 93.88 76 100 C50.92 100 25.84 100 0 100 C0 67 0 34 0 0 Z " fill="#AF8B20" transform="translate(726,2069)"/>
<path d="M0 0 C14.12639649 -0.6384812 28.95885428 3.45726911 40.07421875 12.15625 C38.6864108 16.04631773 36.85899605 19.12183708 34.44921875 22.46875 C33.50175781 23.79326172 33.50175781 23.79326172 32.53515625 25.14453125 C32.05304688 25.80839844 31.5709375 26.47226563 31.07421875 27.15625 C27.59566876 26.112685 24.45070971 24.8689746 21.26171875 23.15625 C13.19471645 19.05386553 3.92262171 17.66532993 -4.8984375 19.9140625 C-11.49082852 22.06098442 -11.49082852 22.06098442 -15.92578125 27.15625 C-16.59258493 30.11345628 -16.59258493 30.11345628 -15.92578125 33.15625 C-10.40067984 40.82010034 -0.33268803 41.5778823 8.38671875 43.03125 C20.26501187 45.17052778 32.94917243 48.18919709 40.671875 58.234375 C45.31107593 66.03960442 45.54077042 75.16064169 43.41015625 83.87109375 C39.82287224 92.99527264 32.82414956 97.91302007 24.171875 101.93359375 C8.22612288 108.22744043 -10.71431617 105.9381962 -26.36328125 99.84375 C-31.43415412 97.59307841 -35.7181617 94.75747732 -39.92578125 91.15625 C-38.48375649 87.00473662 -36.42473745 83.85646555 -33.80078125 80.34375 C-33.07632812 79.36792969 -32.351875 78.39210938 -31.60546875 77.38671875 C-31.05117187 76.65066406 -30.496875 75.91460938 -29.92578125 75.15625 C-27.6731924 76.26916801 -25.44444843 77.41258933 -23.2265625 78.59375 C-11.46659204 84.74275416 1.00292401 87.8912697 14.19921875 83.90625 C17.56988794 82.55923536 19.97614794 81.2159366 22.07421875 78.15625 C23.15561879 74.76786322 23.32577344 72.91091408 22.19921875 69.53125 C15.46579642 62.00566034 3.66057277 61.656628 -5.71289062 60.265625 C-16.7284313 58.44528664 -26.3722355 55.00123476 -33.62109375 46.18359375 C-37.93542116 39.47959397 -38.69517288 31.23139112 -37.36328125 23.46875 C-35.39783292 16.17967012 -30.33414866 10.74197 -24.26171875 6.47265625 C-16.6645887 2.19133045 -8.55924367 0.69446196 0 0 Z " fill="#AF8B20" transform="translate(1316.92578125,2065.84375)"/>
<path d="M0 0 C1.91818063 1.78873286 3.40938724 3.6359501 4.91015625 5.78125 C3.14535544 7.5999836 1.3738486 9.41119991 -0.40234375 11.21875 C-1.15161133 11.9931543 -1.15161133 11.9931543 -1.91601562 12.78320312 C-4.2885401 15.18715176 -5.83954754 16.69781793 -9.08984375 17.78125 C-11.03515625 16.671875 -11.03515625 16.671875 -13.21484375 15.03125 C-21.86068721 9.03493921 -30.33140793 7.40401287 -40.73046875 9.25 C-48.84431263 11.3406837 -55.47486207 15.72791685 -60.05859375 22.8203125 C-64.9648474 32.14962816 -65.56740226 42.87101594 -63.02734375 53.03125 C-60.32575037 60.7951749 -55.22501668 66.88217829 -48.0390625 70.8515625 C-39.31798514 75.01111443 -29.32412098 75.19291181 -20.21484375 72.09375 C-15.62991666 70.22903475 -12.03226606 67.73806673 -8.08984375 64.78125 C-5.08984375 64.78125 -5.08984375 64.78125 -3.40625 66.35546875 C-2.82746094 67.05285156 -2.24867187 67.75023438 -1.65234375 68.46875 C-1.04390625 69.19449219 -0.43546875 69.92023437 0.19140625 70.66796875 C4.28853463 75.70557432 4.28853463 75.70557432 5.91015625 77.78125 C-0.07570873 87.03213225 -12.09710439 91.19798826 -22.40234375 93.53125 C-39.81593677 94.71183258 -55.67764634 93.01724761 -69.69140625 81.67578125 C-79.88565179 72.04409441 -85.51064514 60.12885602 -86.29296875 46.15234375 C-86.49806848 28.94105796 -83.02723973 15.07358129 -70.8984375 2.33203125 C-51.64948204 -15.14998254 -20.24161545 -16.16390345 0 0 Z " fill="#AF8B20" transform="translate(1056.08984375,2077.21875)"/>
<path d="M0 0 C27.72 0 55.44 0 84 0 C84 5.94 84 11.88 84 18 C73.44 18 62.88 18 52 18 C52 45.06 52 72.12 52 100 C45.4 100 38.8 100 32 100 C32 72.94 32 45.88 32 18 C21.44 18 10.88 18 0 18 C0 12.06 0 6.12 0 0 Z " fill="#AF8B20" transform="translate(1423,2069)"/>
<path d="M0 0 C6.93 0 13.86 0 21 0 C21 26.73 21 53.46 21 81 C37.83 81 54.66 81 72 81 C72 87.27 72 93.54 72 100 C48.24 100 24.48 100 0 100 C0 67 0 34 0 0 Z " fill="#AF8B20" transform="translate(584,2069)"/>
<path d="M0 0 C6.6 0 13.2 0 20 0 C20 33 20 66 20 100 C13.4 100 6.8 100 0 100 C0 67 0 34 0 0 Z " fill="#AF8B20" transform="translate(877,2069)"/>
<path d="M0 0 C6.10236276 2.78353389 9.92472983 7.56895439 12.6171875 13.65625 C14.19849877 18.06071891 14.50143297 22.09849916 14.4375 26.75 C14.42920166 27.53568359 14.42090332 28.32136719 14.41235352 29.13085938 C13.96075396 44.82916695 6.21073284 55.19797393 -4.66796875 65.87109375 C-10.28623853 71 -10.28623853 71 -13 71 C-15.80922178 69.59538911 -17.19145367 67.51904667 -19 65 C-17.55463697 61.44456153 -15.81450665 59.91525502 -12.6875 57.75 C-5.37497026 52.23332428 -2.46467034 45.65640315 0 37 C-0.99 37.495 -0.99 37.495 -2 38 C-7.25575165 38.5238576 -11.64526095 38.66505372 -16.4375 36.3125 C-20.90600076 32.27995053 -23.76143692 29.07785486 -24.23828125 22.92578125 C-24.4241515 13.87683495 -23.92556948 8.1321784 -17.625 1.5 C-11.83896445 -0.89422161 -6.16659314 -0.71858041 0 0 Z " fill="#07574D" transform="translate(1820,1827)"/>
</svg>
