<svg width="24" height="17" viewBox="0 0 24 17" fill="none" xmlns="http://www.w3.org/2000/svg">
<path d="M21.91 0.000402576H2.09C1.54797 -0.0103344 1.02376 0.194072 0.632072 0.568893C0.240384 0.943713 0.0131165 1.45843 0 2.0004L0 15.0004C0.0131165 15.5424 0.240384 16.0571 0.632072 16.4319C1.02376 16.8067 1.54797 17.0111 2.09 17.0004H21.91C22.452 17.0111 22.9762 16.8067 23.3679 16.4319C23.7596 16.0571 23.9869 15.5424 24 15.0004V2.0004C23.9869 1.45843 23.7596 0.943713 23.3679 0.568893C22.9762 0.194072 22.452 -0.0103344 21.91 0.000402576ZM8.52 6.7104L6.52 10.8204C6.45994 10.9477 6.36525 11.0556 6.24676 11.1316C6.12828 11.2077 5.99078 11.2488 5.85 11.2504H5.19C5.0042 11.2515 4.82463 11.1835 4.68606 11.0597C4.5475 10.936 4.45982 10.7651 4.44 10.5804L4.13 7.5004C4.12066 7.44027 4.09053 7.38532 4.04484 7.34513C3.99916 7.30493 3.94083 7.28202 3.88 7.2804H3.5C3.30109 7.2804 3.11032 7.20139 2.96967 7.06073C2.82902 6.92008 2.75 6.72931 2.75 6.5304C2.75 6.33149 2.82902 6.14072 2.96967 6.00007C3.11032 5.85942 3.30109 5.7804 3.5 5.7804H4.78C4.9658 5.77934 5.14537 5.84729 5.28394 5.97107C5.4225 6.09485 5.51018 6.26566 5.53 6.4504L5.69 8.1004C5.69885 8.15393 5.72362 8.20354 5.76108 8.24278C5.79854 8.28203 5.84695 8.30907 5.9 8.3204C5.95414 8.33 6.00993 8.32149 6.05874 8.29618C6.10755 8.27087 6.14665 8.23018 6.17 8.1804L7.17 6.1004C7.20604 6.00271 7.26202 5.91358 7.33439 5.83871C7.40676 5.76384 7.49393 5.70486 7.59035 5.66552C7.68676 5.62619 7.79031 5.60736 7.8944 5.61024C7.99849 5.61312 8.10084 5.63765 8.19494 5.68225C8.28903 5.72686 8.3728 5.79057 8.44092 5.86933C8.50904 5.94809 8.56001 6.04017 8.59059 6.13971C8.62117 6.23925 8.63068 6.34407 8.61853 6.44749C8.60638 6.55091 8.57282 6.65066 8.52 6.7404V6.7104ZM10.38 10.7104C10.3435 10.8798 10.2503 11.0316 10.1157 11.1407C9.9811 11.2499 9.81326 11.3097 9.64 11.3104C9.52919 11.3097 9.41992 11.2844 9.32005 11.2364C9.22017 11.1885 9.13216 11.1189 9.06236 11.0329C8.99256 10.9468 8.94269 10.8464 8.91635 10.7387C8.89001 10.6311 8.88784 10.519 8.91 10.4104L9.72 6.3504C9.7397 6.25388 9.77822 6.16218 9.83335 6.08055C9.88849 5.99891 9.95916 5.92894 10.0413 5.87461C10.1235 5.82029 10.2156 5.78269 10.3123 5.76395C10.409 5.74521 10.5085 5.7457 10.605 5.7654C10.7015 5.7851 10.7932 5.82362 10.8749 5.87875C10.9565 5.93389 11.0265 6.00457 11.0808 6.08675C11.1351 6.16893 11.1727 6.261 11.1915 6.35771C11.2102 6.45442 11.2097 6.55388 11.19 6.6504L10.38 10.7104ZM15.58 6.6404C15.5305 6.83243 15.407 6.99705 15.2365 7.09824C15.0659 7.19944 14.8623 7.22898 14.67 7.1804C14.41 7.1104 13.89 7.0204 13.67 7.2404C13.45 7.4604 14.03 7.7404 14.16 7.8104C15.41 8.5804 15.51 9.3904 15.37 9.9304C15.2996 10.1982 15.1744 10.4485 15.0023 10.6654C14.8301 10.8823 14.6148 11.061 14.37 11.1904C14.0418 11.3574 13.6783 11.4431 13.31 11.4404C12.8966 11.4319 12.4877 11.3541 12.1 11.2104C11.9117 11.1454 11.7569 11.0083 11.6697 10.8292C11.5825 10.6501 11.57 10.4437 11.635 10.2554C11.7 10.0671 11.8371 9.91232 12.0162 9.82512C12.1953 9.73791 12.4017 9.72542 12.59 9.7904C12.9287 9.94732 13.3138 9.97228 13.67 9.8604C13.7342 9.83474 13.7893 9.79066 13.8285 9.73371C13.8676 9.67677 13.889 9.6095 13.89 9.5404C13.89 9.3204 13.54 9.1904 13.37 9.0904C11.83 8.0904 11.97 7.1504 12.37 6.4904C13.11 5.2604 14.85 5.6704 15.05 5.7304C15.2351 5.77994 15.3937 5.89933 15.4926 6.06345C15.5914 6.22758 15.6228 6.42364 15.58 6.6104V6.6404ZM20.06 11.2504C19.8615 11.2643 19.6656 11.1998 19.5141 11.0708C19.3627 10.9418 19.2678 10.7585 19.25 10.5604V10.3404C19.2474 10.2785 19.221 10.22 19.1763 10.1771C19.1315 10.1343 19.072 10.1103 19.01 10.1104H18.23C18.1821 10.1081 18.1345 10.1202 18.0935 10.1451C18.0525 10.1701 18.0199 10.2067 18 10.2504L17.7 10.8904C17.6573 10.9797 17.5975 11.0597 17.5239 11.1259C17.4503 11.1921 17.3643 11.2431 17.271 11.276C17.1777 11.309 17.0788 11.3233 16.98 11.318C16.8811 11.3128 16.7843 11.2881 16.695 11.2454C16.5147 11.1592 16.3759 11.0049 16.3094 10.8164C16.2764 10.7231 16.2621 10.6242 16.2674 10.5254C16.2726 10.4265 16.2973 10.3297 16.34 10.2404L18.28 6.1904C18.3443 6.05352 18.446 5.93765 18.5734 5.85623C18.7009 5.77482 18.8488 5.73119 19 5.7304H19.74C19.9248 5.73693 20.1009 5.81059 20.2352 5.93761C20.3696 6.06462 20.4531 6.23627 20.47 6.4204C20.55 7.4204 20.55 7.4204 20.8 10.4204C20.8054 10.5219 20.7904 10.6234 20.7558 10.7189C20.7213 10.8145 20.668 10.9021 20.599 10.9767C20.53 11.0513 20.4467 11.1113 20.3542 11.1531C20.2616 11.195 20.1616 11.2179 20.06 11.2204V11.2504Z" fill="#3F86F2"/>
</svg>
